<svg width="623" height="639" viewBox="0 0 623 639" fill="none" xmlns="http://www.w3.org/2000/svg">
<path d="M616.263 551.956C616.263 552.15 478.433 552.316 308.441 552.316C138.449 552.316 0.590759 552.15 0.590759 551.956C0.590759 551.763 138.394 551.596 308.441 551.596C478.488 551.596 616.263 551.763 616.263 551.956Z" fill="#263238"/>
<path d="M320.337 623.195C362.959 623.195 397.511 614.376 397.511 603.497C397.511 592.619 362.959 583.799 320.337 583.799C277.715 583.799 243.164 592.619 243.164 603.497C243.164 614.376 277.715 623.195 320.337 623.195Z" fill="#FF725E"/>
<path d="M169.656 479.859C169.656 479.859 170.61 609.985 320.337 612.779H321.292C471.018 609.985 471.973 478.255 471.973 478.255L169.656 479.859Z" fill="#FF725E"/>
<path d="M320.808 517.692C404.294 517.692 471.973 500.822 471.973 480.012C471.973 459.201 404.294 442.331 320.808 442.331C237.321 442.331 169.642 459.201 169.642 480.012C169.642 500.822 237.321 517.692 320.808 517.692Z" fill="#FF725E"/>
<path d="M191 496.127C189.299 497.261 218.942 512.546 273.07 517.831C290.292 519.518 310.571 521.22 332.372 519.795C420.501 514.013 437.003 504.855 449.522 496.113C452.648 493.927 458.071 485.254 457.628 483.995C455.498 478.02 465.333 495.753 465.333 495.753L449.522 531.484L342.733 562.829C342.733 562.829 248.448 560.906 246.802 559.855C245.156 558.817 203.685 537.252 203.685 537.252L179.325 515.424L191.014 496.099L191 496.127Z" fill="#FF725E"/>
<path d="M169.656 486.831C169.656 486.831 169.711 487.122 169.767 487.675C169.822 488.228 169.863 489.058 170.223 490.096C170.79 492.171 172.326 495.089 175.3 497.967C178.232 500.858 182.437 503.735 187.652 506.418C192.867 509.088 199.106 511.55 206.147 513.805C234.324 522.81 275.242 528.191 320.337 528.233C365.446 528.191 406.364 522.81 434.555 513.805C441.582 511.55 447.821 509.102 453.036 506.418C458.251 503.749 462.456 500.858 465.388 497.967C468.349 495.089 469.898 492.184 470.465 490.11C470.825 489.086 470.866 488.256 470.922 487.703C470.991 487.149 471.032 486.859 471.032 486.859C471.032 486.859 471.032 487.149 470.991 487.703C470.949 488.256 470.935 489.1 470.59 490.151C470.064 492.267 468.542 495.241 465.582 498.174C462.65 501.12 458.444 504.067 453.216 506.778C447.987 509.503 441.748 511.993 434.693 514.289C406.474 523.447 365.488 528.911 320.323 528.952C275.173 528.911 234.2 523.447 205.967 514.289C198.926 511.993 192.674 509.503 187.445 506.778C182.23 504.053 178.011 501.12 175.078 498.174C172.118 495.241 170.583 492.267 170.057 490.151C169.711 489.1 169.697 488.256 169.656 487.703C169.614 487.149 169.614 486.859 169.614 486.859L169.656 486.831Z" fill="#299D3B"/>
<path d="M184.54 486.029C184.54 486.029 184.595 486.278 184.651 486.776C184.678 487.025 184.72 487.329 184.761 487.689C184.844 488.048 184.997 488.45 185.135 488.906C185.743 490.718 187.348 493.18 190.17 495.518C195.786 500.29 205.746 504.592 218.361 508.161C243.703 515.299 280.097 519.546 320.24 519.587C360.397 519.546 396.791 515.299 422.133 508.161C434.763 504.592 444.708 500.304 450.324 495.518C453.146 493.18 454.751 490.718 455.36 488.906C455.498 488.45 455.65 488.048 455.733 487.689C455.775 487.329 455.816 487.025 455.844 486.776C455.899 486.292 455.954 486.029 455.954 486.029C455.954 486.029 455.954 486.278 455.913 486.776L455.844 487.703C455.775 488.062 455.636 488.477 455.498 488.948C454.917 490.801 453.326 493.333 450.504 495.726C444.888 500.622 434.915 505.007 422.271 508.646C396.902 515.935 360.439 520.265 320.24 520.307C280.056 520.265 243.606 515.935 218.223 508.646C205.58 505.007 195.606 500.622 189.99 495.726C187.168 493.333 185.578 490.801 184.997 488.948C184.872 488.477 184.72 488.062 184.651 487.703L184.582 486.776C184.54 486.278 184.54 486.029 184.54 486.029Z" fill="#299D3B"/>
<path d="M471.973 478.255C471.973 478.255 471.987 478.642 471.973 479.417C471.945 480.191 471.904 481.326 471.793 482.82C471.572 485.807 471.129 490.22 470.175 495.836C469.206 501.452 467.726 508.272 465.305 516.005C462.885 523.723 459.537 532.355 454.737 541.346C449.951 550.338 443.685 559.689 435.565 568.528C427.486 577.395 417.388 585.529 405.686 592.237C393.983 598.96 380.676 604.134 366.414 607.578C352.153 611.022 336.992 612.779 321.444 613.139C305.882 612.848 290.721 611.23 276.418 607.924C262.129 604.632 248.752 599.61 236.967 593.054C225.167 586.511 215 578.474 206.728 569.787C198.484 561.058 192.12 551.776 187.237 542.84C182.354 533.89 178.924 525.286 176.462 517.582C173.999 509.877 172.478 503.057 171.496 497.441C170.514 491.825 170.057 487.426 169.85 484.438C169.739 482.944 169.697 481.796 169.67 481.035C169.656 480.261 169.67 479.873 169.67 479.873C169.67 479.873 169.697 480.261 169.739 481.035C169.78 481.796 169.85 482.944 169.988 484.438C170.251 487.412 170.749 491.811 171.772 497.399C172.796 502.988 174.359 509.78 176.849 517.457C179.353 525.134 182.797 533.697 187.694 542.591C192.591 551.486 198.954 560.712 207.171 569.372C215.429 577.99 225.554 585.971 237.299 592.459C249.029 598.974 262.35 603.954 276.598 607.218C290.832 610.511 305.979 612.115 321.458 612.406C336.95 612.046 352.07 610.303 366.262 606.873C380.469 603.47 393.72 598.31 405.368 591.643C417.015 584.975 427.085 576.911 435.136 568.099C443.228 559.315 449.495 550.02 454.295 541.084C459.108 532.134 462.484 523.543 464.932 515.852C467.38 508.161 468.902 501.356 469.912 495.753C470.908 490.151 471.406 485.766 471.669 482.778C471.807 481.284 471.862 480.15 471.918 479.375C471.959 478.614 471.987 478.213 471.987 478.213L471.973 478.255Z" fill="#299D3B"/>
<path d="M113.453 268.632C94.3498 270.61 58.4951 296.131 88.789 332.567C119.083 369.017 160.084 339.318 164.247 314.225C167.526 294.458 149.017 264.952 113.453 268.632Z" fill="#FF725E"/>
<path d="M113.453 264.399C94.3498 266.377 58.4951 291.899 88.789 328.334C119.083 364.784 160.084 335.085 164.247 309.992C167.526 290.225 149.017 260.719 113.453 264.399Z" fill="#FF725E"/>
<path d="M96.0374 283.073C93.3539 285.452 101.28 293.987 102.525 291.885C103.756 289.782 98.2092 281.164 96.0374 283.073Z" fill="#FF725E"/>
<path d="M104.572 277.194C103.037 277.706 106.841 293.752 110.548 292.217C114.255 290.681 107.242 276.295 104.572 277.194Z" fill="#FF725E"/>
<path d="M114.864 274.497C113.328 275.092 115.168 285.093 118.253 284.733C121.338 284.387 116.399 273.888 114.864 274.497Z" fill="#FF725E"/>
<path d="M126.041 273.293C122.348 273.293 122.915 287.195 126.041 287.514C129.167 287.832 131.131 273.307 126.041 273.293Z" fill="#FF725E"/>
<path d="M105.098 305.953C104.545 304.224 89.9787 306.022 91.2098 309.618C92.4409 313.215 106.274 309.688 105.098 305.953Z" fill="#FF725E"/>
<path d="M116.455 318.471C118.212 318.79 117.81 332.802 113.716 331.046C109.621 329.275 114.698 318.153 116.455 318.471Z" fill="#FF725E"/>
<path d="M111.599 312.122C113.315 313.409 103.991 327.504 99.0945 324.503C94.1839 321.501 109.884 310.836 111.599 312.122Z" fill="#FF725E"/>
<path d="M136.997 302.979C137.508 299.686 153.347 303.089 152.268 306.271C151.189 309.452 136.319 307.336 136.997 302.979Z" fill="#FF725E"/>
<path d="M139.694 297.432C140.621 299.451 150.746 297.252 149.571 294.485C148.395 291.719 138.767 295.412 139.694 297.432Z" fill="#FF725E"/>
<path d="M133.234 308.36C132.529 309.425 143.761 318.361 144.605 315.746C145.448 313.146 135.005 305.676 133.234 308.36Z" fill="#FF725E"/>
<path d="M129.167 312.247C126.677 313.741 130.122 325.665 132.985 324.848C135.848 324.046 132.722 310.116 129.167 312.247Z" fill="#FF725E"/>
<path d="M110.797 266.432C110.825 266.543 108.971 266.889 106.163 267.912C104.752 268.41 103.12 269.144 101.377 270.056C99.6478 270.997 97.8081 272.145 96.0098 273.529C94.2253 274.926 92.6622 276.42 91.3343 277.858C90.034 279.311 88.9412 280.708 88.1251 281.925C86.479 284.373 85.7181 286.047 85.6213 285.992C85.5798 285.978 85.7596 285.549 86.0916 284.802C86.2576 284.415 86.479 283.958 86.7694 283.447C87.0599 282.935 87.3643 282.326 87.7792 281.718C88.5539 280.445 89.619 279.02 90.9193 277.526C92.2473 276.046 93.8242 274.524 95.6225 273.1C97.4484 271.703 99.3297 270.541 101.1 269.614C102.885 268.715 104.558 268.009 106.011 267.553C106.716 267.29 107.394 267.138 107.975 266.972C108.556 266.806 109.068 266.695 109.483 266.626C110.313 266.474 110.783 266.405 110.783 266.432H110.797Z" fill="white"/>
<path d="M129.969 267.719C129.914 267.871 128.033 267.318 125.64 266.999C123.247 266.667 121.282 266.709 121.269 266.557C121.255 266.418 123.26 266.114 125.723 266.46C128.185 266.778 130.039 267.594 129.983 267.733L129.969 267.719Z" fill="white"/>
<path d="M132.349 291.608C132.432 291.733 129.873 293.351 126.345 294.61C122.832 295.882 119.802 296.27 119.775 296.131C119.747 295.965 122.68 295.343 126.138 294.084C129.61 292.839 132.252 291.456 132.335 291.608H132.349Z" fill="white"/>
<path d="M122.265 164.125C122.265 164.125 100.561 149.061 100.367 143.776C100.16 138.492 108.944 141.784 108.944 141.784C108.944 141.784 102.456 128.878 106.509 124.507C109.234 121.575 121.628 132.669 121.628 132.669C121.628 132.669 118.322 122.999 122.915 123.373C127.507 123.76 137.163 135.366 137.674 146.612C138.186 157.844 122.265 164.138 122.265 164.138V164.125Z" fill="#4C5A4B"/>
<path d="M138.062 136.03C136.761 135.878 135.682 136.998 134.894 138.05C132.432 141.342 130.481 145.021 129.153 148.922C126.179 145.81 122.749 143.154 119 141.065C117.672 140.332 116.054 139.654 114.698 140.332C113.329 141.01 112.886 142.753 112.789 144.274C112.499 148.549 113.661 152.906 116.04 156.461C113.08 154.939 109.69 154.303 106.384 154.649C105.236 154.773 103.978 155.078 103.327 156.046C102.152 157.775 103.756 160.016 105.319 161.413C111.295 166.78 118.212 171.096 125.64 174.139L141.271 174.624C142.447 163.115 142.239 151.467 140.662 140.014C140.427 138.326 139.777 136.237 138.089 136.044L138.062 136.03Z" fill="#4C5A4B"/>
<path d="M138.062 136.03C136.761 135.878 135.682 136.998 134.894 138.05C132.432 141.342 130.481 145.021 129.153 148.922C126.179 145.81 122.749 143.154 119 141.065C117.672 140.332 116.054 139.654 114.698 140.332C113.329 141.01 112.886 142.753 112.789 144.274C112.499 148.549 113.661 152.906 116.04 156.461C113.08 154.939 109.69 154.303 106.384 154.649C105.236 154.773 103.978 155.078 103.327 156.046C102.152 157.775 103.756 160.016 105.319 161.413C111.295 166.78 118.212 171.096 125.64 174.139L141.271 174.624C142.447 163.115 142.239 151.467 140.662 140.014C140.427 138.326 139.777 136.237 138.089 136.044L138.062 136.03Z" fill="#4C5A4B"/>
<path d="M134.354 186.88C134.354 186.88 113.84 177.819 110.493 172.659C107.145 167.5 127.341 172.936 127.341 172.936C127.341 172.936 120.494 163.087 122.002 157.014C123.509 150.942 138.504 165.95 138.504 165.95C138.504 165.95 140.04 146.045 144.591 146.806C149.142 147.553 152.392 175.938 152.392 175.938L265.767 325.983C265.767 325.983 264.425 337.671 238.779 343.343L195.855 279.075C195.855 279.075 178.841 272.436 176.102 266.211C173.363 260 183.987 263.763 183.987 263.763L162.214 229.499C162.214 229.499 138.822 217.699 137.744 211.792C136.665 205.872 148.063 210.409 148.063 210.409L134.354 186.907V186.88Z" fill="#4C5A4B"/>
<path d="M189.465 237.107C189.465 237.107 188.98 236.705 188.178 235.903C187.279 234.99 186.145 233.856 184.803 232.5C183.364 231.075 181.649 229.388 179.657 227.603C178.661 226.718 177.596 225.805 176.434 224.961C175.853 224.533 175.244 224.131 174.608 223.813C174.29 223.647 173.958 223.537 173.64 223.467C173.322 223.426 173.142 223.495 172.92 223.703C172.547 224.145 172.505 224.92 172.561 225.612C172.616 226.331 172.754 227.05 172.934 227.742C173.28 229.139 173.75 230.453 174.221 231.698C175.175 234.188 176.171 236.373 177.029 238.213C177.859 239.929 178.55 241.381 179.104 242.529C179.602 243.553 179.865 244.12 179.823 244.148C179.782 244.175 179.436 243.65 178.855 242.667C178.288 241.685 177.485 240.247 176.572 238.435C175.659 236.622 174.608 234.437 173.612 231.933C173.114 230.674 172.63 229.346 172.256 227.908C172.063 227.188 171.925 226.441 171.855 225.667C171.814 224.906 171.772 224.007 172.395 223.218C172.575 223.052 172.754 222.873 173.017 222.803C173.28 222.707 173.515 222.734 173.75 222.748C174.179 222.831 174.567 222.983 174.926 223.163C175.632 223.523 176.268 223.938 176.863 224.38C178.052 225.266 179.118 226.192 180.114 227.105C182.092 228.931 183.779 230.661 185.176 232.141C186.56 233.621 187.652 234.852 188.386 235.709C189.119 236.567 189.506 237.079 189.465 237.107Z" fill="#299D3B"/>
<path d="M222.774 280.971C222.774 280.971 222.359 280.652 221.709 280.002C220.948 279.241 220.021 278.315 218.956 277.25C217.78 276.101 216.383 274.718 214.765 273.28C213.949 272.56 213.091 271.827 212.15 271.135C211.68 270.79 211.182 270.471 210.67 270.209C210.421 270.07 210.145 269.987 209.909 269.932C209.66 269.904 209.55 269.946 209.384 270.098C209.107 270.416 209.052 271.039 209.107 271.606C209.163 272.187 209.259 272.754 209.411 273.321C209.688 274.442 210.075 275.52 210.449 276.53C211.224 278.55 212.026 280.334 212.718 281.828C213.368 283.198 213.921 284.373 214.378 285.356C214.765 286.186 214.972 286.656 214.931 286.684C214.889 286.711 214.599 286.282 214.129 285.494C213.658 284.705 213.008 283.53 212.247 282.063C211.5 280.597 210.643 278.827 209.826 276.779C209.425 275.756 209.024 274.677 208.72 273.501C208.568 272.92 208.443 272.311 208.388 271.661C208.36 271.039 208.319 270.292 208.844 269.614C209.107 269.296 209.633 269.13 210.006 269.213C210.366 269.282 210.698 269.406 210.975 269.559C211.556 269.849 212.067 270.195 212.552 270.554C213.52 271.274 214.391 272.035 215.194 272.768C216.812 274.248 218.168 275.673 219.302 276.876C220.422 278.08 221.308 279.089 221.903 279.795C222.497 280.5 222.802 280.915 222.76 280.943L222.774 280.971Z" fill="#299D3B"/>
<path d="M135.876 181.485C135.793 181.651 133.151 180.212 130.537 177.625C127.908 175.052 126.442 172.438 126.608 172.355C126.788 172.231 128.489 174.61 131.048 177.114C133.594 179.631 136.001 181.305 135.876 181.485Z" fill="#299D3B"/>
<path d="M492.791 389.379C492.791 389.379 502.585 369.293 506.97 368.436C511.355 367.578 509.75 375.352 509.75 375.352C509.75 375.352 519.696 368.256 523.888 371.078C526.696 372.973 519.018 384.772 519.018 384.772C519.018 384.772 526.682 380.761 526.945 384.648C527.221 388.535 518.756 398.107 509.432 399.988C500.109 401.87 492.791 389.365 492.791 389.365V389.379Z" fill="#4C5A4B"/>
<path d="M518.327 398.965C518.285 397.858 517.22 397.097 516.238 396.586C513.167 394.953 509.833 393.805 506.417 393.183C508.63 390.305 510.401 387.082 511.673 383.68C512.116 382.476 512.475 381.037 511.729 379.986C510.982 378.921 509.474 378.783 508.187 378.893C504.577 379.198 501.091 380.733 498.421 383.182C499.307 380.512 499.403 377.593 498.684 374.882C498.435 373.927 498.006 372.918 497.121 372.503C495.516 371.742 493.856 373.374 492.888 374.854C489.181 380.553 486.456 386.875 484.879 393.487L486.497 406.614C496.277 406.116 505.988 404.443 515.353 401.635C516.736 401.22 518.396 400.403 518.341 398.965H518.327Z" fill="#4C5A4B"/>
<path d="M518.327 398.965C518.285 397.858 517.22 397.097 516.238 396.586C513.167 394.953 509.833 393.805 506.417 393.183C508.63 390.305 510.401 387.082 511.673 383.68C512.116 382.476 512.475 381.037 511.729 379.986C510.982 378.921 509.474 378.783 508.187 378.893C504.577 379.198 501.091 380.733 498.421 383.182C499.307 380.512 499.403 377.593 498.684 374.882C498.435 373.927 498.006 372.918 497.121 372.503C495.516 371.742 493.856 373.374 492.888 374.854C489.181 380.553 486.456 386.875 484.879 393.487L486.497 406.614C496.277 406.116 505.988 404.443 515.353 401.635C516.736 401.22 518.396 400.403 518.341 398.965H518.327Z" fill="#4C5A4B"/>
<path d="M493.372 403.198C493.372 403.198 503.982 388.715 498.712 388.244C493.441 387.774 486.082 394.773 486.082 394.773C486.082 394.773 488.005 377.192 484.132 380.65C480.259 384.122 475.32 402.437 475.32 402.437L457.448 416.934C457.448 416.934 459.758 406.822 454.958 408.482C450.145 410.142 443.311 431.223 443.311 431.223L417.485 453.854C417.485 453.854 419.27 444.475 414.428 447.574C409.587 450.672 406.225 465.75 406.225 465.75L358.032 509.946C359.18 512.892 360.356 515.396 361.545 517.554L391.659 514.165L486.829 416.104C486.829 416.104 510.138 409.727 510.179 405.826C510.221 401.925 493.386 403.212 493.386 403.212L493.372 403.198Z" fill="#4C5A4B"/>
<path d="M440.462 454.988C440.462 454.988 440.724 454.518 441.292 453.743C441.956 452.844 442.758 451.751 443.685 450.478C444.681 449.095 445.87 447.435 447.101 445.54C447.71 444.586 448.333 443.59 448.886 442.511C449.163 441.971 449.425 441.418 449.605 440.837C449.702 440.546 449.757 440.27 449.771 440.007C449.771 439.744 449.688 439.633 449.508 439.481C449.121 439.246 448.485 439.301 447.904 439.44C447.323 439.578 446.742 439.786 446.188 440.021C445.068 440.491 444.031 441.044 443.048 441.598C441.098 442.704 439.383 443.825 437.958 444.765C436.644 445.651 435.523 446.412 434.61 447.048C433.822 447.587 433.365 447.878 433.338 447.836C433.31 447.795 433.697 447.435 434.444 446.827C435.191 446.218 436.284 445.36 437.681 444.35C439.078 443.341 440.766 442.179 442.73 441.017C443.712 440.436 444.764 439.855 445.926 439.357C446.507 439.108 447.115 438.886 447.765 438.72C448.402 438.582 449.163 438.43 449.923 438.873C450.283 439.094 450.546 439.592 450.504 439.993C450.49 440.38 450.421 440.726 450.311 441.044C450.103 441.681 449.827 442.262 449.536 442.829C448.955 443.935 448.305 444.945 447.682 445.9C446.41 447.795 445.179 449.427 444.114 450.783C443.048 452.138 442.163 453.203 441.527 453.923C440.89 454.642 440.517 455.029 440.475 454.988H440.462Z" fill="#299D3B"/>
<path d="M408.093 488.505C408.01 488.436 409.047 487.066 410.68 484.812C411.496 483.677 412.45 482.335 413.446 480.8C413.944 480.025 414.442 479.209 414.899 478.338C415.12 477.909 415.327 477.452 415.48 476.996C415.563 476.761 415.59 476.539 415.604 476.332C415.604 476.138 415.549 476.083 415.424 475.958C415.148 475.779 414.636 475.82 414.165 475.931C413.695 476.042 413.225 476.207 412.782 476.401C411.883 476.775 411.039 477.231 410.237 477.674C408.646 478.573 407.263 479.472 406.101 480.233C403.777 481.768 402.38 482.764 402.311 482.681C402.255 482.612 403.556 481.464 405.81 479.804C406.945 478.988 408.314 478.033 409.905 477.079C410.707 476.609 411.565 476.125 412.505 475.723C412.976 475.516 413.474 475.336 414.013 475.198C414.539 475.087 415.161 474.949 415.825 475.322C416.13 475.502 416.365 475.958 416.337 476.29C416.337 476.609 416.268 476.899 416.171 477.162C416.005 477.688 415.77 478.172 415.535 478.614C415.065 479.527 414.525 480.344 414.013 481.118C412.976 482.654 411.966 483.982 411.108 485.074C409.365 487.26 408.19 488.533 408.12 488.463L408.093 488.505Z" fill="#299D3B"/>
<path d="M480.037 402.99C479.858 402.921 480.701 400.514 482.527 397.997C484.339 395.465 486.359 393.916 486.47 394.054C486.608 394.206 484.865 395.949 483.108 398.412C481.338 400.86 480.231 403.059 480.037 402.976V402.99Z" fill="#299D3B"/>
<path d="M180.266 420.489C180.266 424.791 181.856 428.954 183.848 432.772C194.002 452.194 215.138 464.491 236.897 467.064L274.647 464.436C277.663 462.817 279.682 459.497 279.765 456.081C279.848 452.664 277.967 449.261 275.035 447.504C277.04 441.044 275.187 433.561 270.414 428.775C265.642 423.988 258.145 422.135 251.699 424.127C250.869 418.718 246.829 413.946 241.642 412.217C236.455 410.488 230.354 411.899 226.454 415.73C223.742 410.266 218.929 405.605 212.98 404.221C207.032 402.838 200.074 405.356 197.322 410.806C194.707 407.375 189.271 406.988 185.674 409.353C182.078 411.719 180.266 416.201 180.28 420.516L180.266 420.489Z" fill="#4C5A4B"/>
<path d="M171.164 434.322C171.703 441.999 177.375 449.164 185.066 449.344C181.206 453.024 179.754 456.855 180.736 461.918C181.926 468.005 186.297 473.372 192.024 475.737C197.75 478.116 204.639 477.425 209.785 473.98C209.342 481.229 218.638 489.307 225.859 490.068C232.886 490.815 239.456 485.711 243.745 479.79C247.659 486.734 256.416 490.704 264.203 488.837C272.434 486.859 278.686 478.587 278.341 470.121C277.995 461.655 271.078 453.937 262.696 452.65C264.618 445.167 258.905 437.185 251.546 434.833C244.187 432.482 235.998 434.764 229.511 438.956C227.463 433.256 223.673 427.903 218.14 425.441C212.607 422.979 205.248 424.237 201.886 429.259C199.922 421.817 191.816 416.56 184.222 417.819C176.628 419.078 170.638 426.658 171.164 434.335V434.322Z" fill="#4C5A4B"/>
<path d="M256.25 437.24C255.503 436.715 253.455 421.236 256.748 406.504C260.04 391.758 263.263 388.106 263.263 388.106L239.802 378.88C239.802 378.88 235.224 397.125 229.206 402.575C223.189 408.025 200.877 425.953 200.877 425.953L209.923 430.863C209.923 430.863 224.268 416.477 227.643 418.621C231.018 420.765 219.164 438.195 219.164 438.195L229.054 447.117C229.054 447.117 240.923 407.334 245.75 408.662C250.578 409.99 243.496 442.663 243.496 442.663L256.236 437.24H256.25Z" fill="#4C5A4B"/>
<path opacity="0.3" d="M194.375 463.205C197.073 461.226 200.863 461.807 202.855 464.505C204.833 467.202 204.252 470.993 201.554 472.984C198.857 474.976 195.067 474.382 193.075 471.684C191.097 468.987 191.678 465.197 194.375 463.205Z" fill="white"/>
<path d="M271.424 481.768C271.424 481.768 271.189 482.086 270.65 482.543C270.11 482.999 269.266 483.594 268.132 484.189C265.905 485.379 262.364 486.444 258.449 486.001C254.534 485.558 251.311 483.746 249.402 482.1C248.434 481.27 247.742 480.51 247.314 479.942C246.885 479.375 246.691 479.043 246.719 479.016C246.816 478.933 247.756 480.191 249.72 481.699C251.657 483.207 254.783 484.867 258.532 485.282C262.281 485.697 265.684 484.77 267.911 483.719C270.165 482.681 271.355 481.658 271.438 481.754L271.424 481.768Z" fill="white"/>
<path d="M243.745 475.516C243.745 475.516 243.343 476.844 242.085 478.684C240.84 480.51 238.765 482.861 235.888 484.701C234.449 485.614 232.969 486.305 231.558 486.762C230.133 487.177 228.819 487.44 227.699 487.44C227.145 487.481 226.633 487.44 226.191 487.398C225.748 487.371 225.375 487.315 225.07 487.232C224.462 487.094 224.143 486.983 224.143 486.942C224.171 486.803 225.513 487.122 227.657 486.942C228.736 486.886 229.995 486.568 231.337 486.14C232.678 485.669 234.089 484.978 235.486 484.092C238.267 482.308 240.342 480.095 241.656 478.379C242.984 476.65 243.606 475.447 243.717 475.502L243.745 475.516Z" fill="white"/>
<path d="M188.814 470.467C188.897 470.37 189.838 471.172 191.581 472.085C193.31 472.998 195.911 473.953 198.899 474.091C201.886 474.229 204.57 473.496 206.368 472.735C208.18 471.975 209.204 471.255 209.273 471.366C209.329 471.421 208.402 472.307 206.576 473.206C204.777 474.105 201.997 474.949 198.871 474.81C195.745 474.672 193.047 473.593 191.332 472.528C189.589 471.463 188.759 470.508 188.814 470.453V470.467Z" fill="white"/>
<path d="M288.992 105.681C284.538 103.246 279.337 102.541 274.26 102.444C248.42 101.974 223.742 116.899 208.789 137.967L190.17 178.511C190.142 182.55 192.425 186.52 195.924 188.526C199.424 190.545 204.003 190.518 207.475 188.47C213.022 194.197 221.82 196.521 229.469 194.28C237.119 192.039 243.274 185.344 244.865 177.529C250.924 179.728 258.159 178.248 262.876 173.849C267.593 169.45 269.584 162.34 267.828 156.143C275.021 156.42 282.574 154.082 287.36 148.715C292.146 143.348 293.474 134.716 289.393 128.782C294.414 128.021 297.9 122.612 297.485 117.549C297.07 112.486 293.446 108.088 288.992 105.653V105.681Z" fill="#4C5A4B"/>
<path d="M279.835 88.4311C271.59 84.6409 260.967 86.4807 256.416 94.3239C254.783 88.2513 251.643 84.5718 245.861 82.732C238.889 80.5187 230.866 82.0265 225.167 86.6052C219.468 91.1839 216.286 98.7089 216.95 105.985C209.702 101.434 196.09 106.483 191.221 113.524C186.477 120.371 188.054 130.068 191.747 137.842C182.341 137.967 173.294 144.786 170.818 153.902C168.203 163.544 173.239 174.693 182.188 179.105C191.152 183.532 203.048 180.738 209.121 172.798C215.775 179.009 227.27 177.612 233.868 171.331C240.466 165.051 242.735 155.285 242.071 146.197C249.126 147.29 256.817 146.405 262.474 142.075C268.146 137.745 271.009 129.404 267.703 123.082C276.515 125.254 286.53 119.832 289.531 111.269C292.533 102.707 288.065 92.2075 279.821 88.4311H279.835Z" fill="#4C5A4B"/>
<path d="M228.708 174.831C229.677 174.361 246.843 180.987 260.247 192.731C273.637 204.475 275.602 209.884 275.602 209.884L298.412 190.822C298.412 190.822 282.117 175.772 279.876 166.462C277.649 157.153 271.701 123.926 271.701 123.926L261.506 130.511C261.506 130.511 268.284 153.487 264.162 155.769C260.04 158.052 248.697 135.933 248.697 135.933L233.882 141.12C233.882 141.12 268.339 175.896 264.231 180.143C260.123 184.39 230.313 158.591 230.313 158.591L228.722 174.845L228.708 174.831Z" fill="#4C5A4B"/>
<path opacity="0.3" d="M236.814 96.1222C237.34 100.037 234.587 103.633 230.686 104.159C226.772 104.685 223.175 101.932 222.65 98.0311C222.124 94.1164 224.877 90.5199 228.778 89.9943C232.678 89.4686 236.289 92.2213 236.814 96.1222Z" fill="white"/>
<path d="M174.041 165.369C174.041 165.369 173.861 164.941 173.695 164.111C173.543 163.295 173.405 162.077 173.446 160.583C173.488 157.609 174.387 153.363 177.043 149.572C179.699 145.782 183.378 143.472 186.159 142.421C187.556 141.881 188.731 141.591 189.561 141.452C190.391 141.314 190.848 141.3 190.848 141.342C190.876 141.48 189.036 141.715 186.352 142.891C183.682 144.039 180.197 146.335 177.624 149.987C175.065 153.639 174.11 157.72 173.944 160.611C173.75 163.544 174.165 165.342 174.027 165.369H174.041Z" fill="white"/>
<path d="M196.16 140.249C196.16 140.249 195.869 139.972 195.44 139.378C194.998 138.797 194.458 137.884 193.863 136.722C192.688 134.398 191.443 130.926 191.152 126.914C191.028 124.908 191.138 122.999 191.456 121.284C191.83 119.583 192.286 118.075 192.923 116.913C193.186 116.304 193.518 115.82 193.808 115.378C194.085 114.935 194.348 114.575 194.61 114.312C195.095 113.759 195.371 113.482 195.413 113.51C195.537 113.607 194.431 114.797 193.393 117.134C192.84 118.282 192.452 119.763 192.12 121.409C191.844 123.069 191.761 124.936 191.885 126.873C192.162 130.774 193.296 134.176 194.334 136.514C195.385 138.852 196.284 140.18 196.173 140.263L196.16 140.249Z" fill="white"/>
<path d="M232.443 86.2594C232.485 86.37 231.115 86.8818 229.165 88.1683C227.228 89.4271 224.752 91.585 222.926 94.6144C221.1 97.6438 220.326 100.839 220.104 103.135C219.869 105.459 220.049 106.912 219.925 106.926C219.883 106.926 219.786 106.58 219.689 105.916C219.593 105.252 219.537 104.297 219.593 103.108C219.689 100.742 220.395 97.3948 222.304 94.2548C224.213 91.1009 226.841 88.9291 228.888 87.7395C229.926 87.1447 230.797 86.7435 231.433 86.5222C232.056 86.3009 232.416 86.2179 232.429 86.2594H232.443Z" fill="white"/>
<path d="M577.905 358.02C581.073 354.05 582.677 349.056 583.659 344.076C588.639 318.72 578.251 291.816 560.13 273.39L523.459 247.965C519.489 247.232 515.187 248.782 512.586 251.88C509.986 254.965 509.211 259.474 510.608 263.265C504.01 267.719 500.178 275.977 501.05 283.903C501.921 291.829 507.44 299.064 514.855 301.997C511.632 307.585 511.825 314.958 515.325 320.38C518.825 325.789 525.478 328.998 531.897 328.348C530.361 335.375 531.357 343.218 535.798 348.876C540.252 354.534 548.51 357.342 555.067 354.368C554.942 359.444 559.659 363.829 564.708 364.3C569.771 364.784 574.737 361.99 577.905 358.02Z" fill="#4C5A4B"/>
<path d="M596.469 352.002C601.642 344.546 601.697 333.771 594.753 327.919C601.02 327.38 605.183 324.931 608.005 319.55C611.408 313.077 611.325 304.915 607.812 298.497C604.298 292.092 597.451 287.638 590.161 287.016C595.915 280.68 593.315 266.391 587.242 260.36C581.322 254.495 571.514 254.342 563.201 256.625C564.722 247.343 559.59 237.245 551.042 233.22C542.009 228.959 530.154 231.961 524.233 240.012C518.313 248.062 518.977 260.263 525.727 267.622C518.437 273.086 517.815 284.65 522.85 292.244C527.885 299.839 537.098 303.781 546.159 304.708C543.848 311.458 543.378 319.191 546.656 325.526C549.935 331.862 557.626 336.15 564.432 334.006C560.752 342.305 564.335 353.123 572.247 357.563C580.16 362.017 591.267 359.458 596.441 351.988L596.469 352.002Z" fill="#4C5A4B"/>
<path d="M520.346 286.573C520.651 287.61 511.12 303.352 497.218 314.488C483.316 325.623 477.644 326.605 477.644 326.605L492.432 352.39C492.432 352.39 510.096 338.972 519.655 338.405C529.199 337.837 562.965 337.796 562.965 337.796L558.262 326.605C558.262 326.605 534.456 329.261 532.934 324.793C531.413 320.325 555.178 313.035 555.178 313.035L552.66 297.542C552.66 297.542 512.393 325.388 508.934 320.602C505.476 315.816 536.088 290.972 536.088 290.972L520.36 286.559L520.346 286.573Z" fill="#4C5A4B"/>
<path opacity="0.3" d="M596.427 308.318C592.485 308.152 589.428 304.818 589.594 300.876C589.76 296.934 593.093 293.877 597.036 294.043C600.978 294.209 604.035 297.542 603.869 301.485C603.703 305.427 600.369 308.484 596.427 308.318Z" fill="white"/>
<path d="M539.214 234.395C539.214 234.395 539.671 234.285 540.501 234.285C541.331 234.285 542.548 234.354 544.014 234.644C546.933 235.198 550.958 236.844 554.223 240.122C557.501 243.401 559.12 247.426 559.673 250.345C559.964 251.811 560.047 253.028 560.033 253.858C560.033 254.688 559.964 255.145 559.908 255.145C559.77 255.145 559.867 253.291 559.175 250.441C558.511 247.62 556.865 243.774 553.711 240.606C550.557 237.452 546.712 235.792 543.89 235.115C541.04 234.423 539.187 234.506 539.187 234.368L539.214 234.395Z" fill="white"/>
<path d="M560.088 260.567C560.088 260.567 560.42 260.332 561.07 260C561.72 259.668 562.716 259.295 563.961 258.907C566.451 258.16 570.089 257.538 574.087 257.953C576.079 258.174 577.946 258.617 579.579 259.239C581.183 259.903 582.594 260.622 583.618 261.452C584.171 261.826 584.6 262.227 584.973 262.587C585.361 262.933 585.665 263.265 585.886 263.555C586.343 264.122 586.578 264.454 586.537 264.482C586.426 264.579 585.444 263.278 583.327 261.854C582.29 261.107 580.907 260.456 579.344 259.848C577.753 259.295 575.941 258.88 574.004 258.658C570.117 258.243 566.576 258.769 564.086 259.378C561.596 260 560.13 260.664 560.074 260.539L560.088 260.567Z" fill="white"/>
<path d="M606.899 305.731C606.774 305.759 606.511 304.32 605.584 302.176C604.671 300.046 602.984 297.238 600.328 294.9C597.672 292.563 594.656 291.262 592.429 290.64C590.188 290.003 588.722 289.934 588.736 289.81C588.736 289.768 589.11 289.727 589.774 289.754C590.437 289.782 591.392 289.879 592.568 290.142C594.892 290.654 598.046 291.926 600.812 294.361C603.579 296.782 605.266 299.756 606.069 301.983C606.484 303.103 606.719 304.044 606.829 304.694C606.94 305.344 606.954 305.718 606.912 305.731H606.899Z" fill="white"/>
<path d="M341.654 105.044C322.55 106.926 286.696 131.175 316.99 165.798C347.284 200.422 388.284 172.217 392.448 148.369C395.726 129.584 377.218 101.545 341.654 105.044Z" fill="#FF725E"/>
<path d="M341.654 101.019C322.55 102.9 286.696 127.149 316.99 161.773C347.284 196.397 388.284 168.191 392.448 144.344C395.726 125.559 377.218 97.5193 341.654 101.019Z" fill="#FF725E"/>
<path d="M324.238 118.767C321.554 121.021 329.481 129.127 330.726 127.135C331.957 125.144 326.41 116.954 324.238 118.767Z" fill="#FF725E"/>
<path d="M332.773 113.178C331.237 113.676 335.041 128.906 338.749 127.454C342.456 126.001 335.443 112.32 332.773 113.178Z" fill="#FF725E"/>
<path d="M343.078 110.605C341.529 111.172 343.383 120.662 346.467 120.344C349.552 120.012 344.614 110.038 343.078 110.605Z" fill="#FF725E"/>
<path d="M354.255 109.471C350.562 109.471 351.129 122.681 354.255 122.986C357.382 123.29 359.346 109.485 354.255 109.471Z" fill="#FF725E"/>
<path d="M333.299 140.498C332.745 138.852 318.179 140.567 319.41 143.984C320.641 147.401 334.474 144.039 333.299 140.498Z" fill="#FF725E"/>
<path d="M344.655 152.394C346.412 152.699 346.011 166.02 341.916 164.346C337.822 162.672 342.899 152.104 344.655 152.394Z" fill="#FF725E"/>
<path d="M339.814 146.363C341.529 147.58 332.206 160.984 327.309 158.135C322.398 155.285 338.099 145.146 339.814 146.363Z" fill="#FF725E"/>
<path d="M365.197 137.676C365.709 134.55 381.548 137.787 380.469 140.802C379.376 143.818 364.519 141.812 365.197 137.676Z" fill="#FF725E"/>
<path d="M367.895 132.406C368.821 134.329 378.947 132.24 377.771 129.612C376.595 126.983 366.968 130.483 367.895 132.406Z" fill="#FF725E"/>
<path d="M361.435 142.794C360.729 143.818 371.961 152.297 372.805 149.821C373.649 147.345 363.205 140.249 361.435 142.794Z" fill="#FF725E"/>
<path d="M357.382 146.488C354.892 147.899 358.336 159.242 361.199 158.467C364.063 157.706 360.937 144.468 357.382 146.488Z" fill="#FF725E"/>
<path d="M338.998 102.956C339.025 103.052 337.172 103.384 334.364 104.367C332.953 104.851 331.32 105.529 329.578 106.4C327.848 107.299 326.009 108.392 324.21 109.706C322.426 111.034 320.863 112.459 319.535 113.814C318.235 115.198 317.142 116.512 316.326 117.688C314.68 120.012 313.919 121.602 313.822 121.561C313.78 121.547 313.96 121.146 314.292 120.427C314.458 120.067 314.68 119.624 314.97 119.14C315.26 118.656 315.565 118.075 315.98 117.494C316.754 116.29 317.82 114.921 319.12 113.51C320.448 112.113 322.025 110.661 323.823 109.305C325.649 107.977 327.53 106.87 329.301 105.985C331.085 105.127 332.759 104.463 334.212 104.021C334.917 103.772 335.595 103.62 336.176 103.467C336.757 103.315 337.269 103.205 337.684 103.135C338.514 102.983 338.984 102.914 338.984 102.956H338.998Z" fill="white"/>
<path d="M358.17 104.173C358.115 104.325 356.233 103.786 353.84 103.495C351.447 103.191 349.483 103.218 349.469 103.066C349.455 102.928 351.461 102.651 353.923 102.969C356.386 103.274 358.239 104.048 358.184 104.173H358.17Z" fill="white"/>
<path d="M360.563 126.886C360.646 126.997 358.087 128.546 354.56 129.736C351.046 130.953 348.017 131.313 347.989 131.188C347.961 131.036 350.894 130.441 354.352 129.252C357.824 128.076 360.466 126.762 360.549 126.9L360.563 126.886Z" fill="white"/>
<path d="M480.494 150.956C475.113 155.839 469.234 160.154 462.94 163.848C457.684 166.946 452.759 170.543 448.25 174.61C434.472 187.032 432.176 194.778 432.176 194.778C418.384 228.973 456.646 249.916 456.646 249.916L470.161 227.576C467.284 225.667 464.863 223.149 463.106 220.203C456.452 209.164 460.201 194.958 471.503 188.443C478.295 184.39 486.76 184.044 493.884 187.516L519.807 143.984C505.089 136.002 490.827 141.397 480.494 150.956Z" fill="#4C5A4B"/>
<path d="M480.563 155.769C475.971 160.099 470.949 163.972 465.568 167.334C460.616 170.169 455.954 173.462 451.639 177.169C439.521 188.111 436.948 195.608 436.948 195.608C425.024 227.064 459.039 246.015 459.039 246.015L470.05 227.576C459.33 220.175 456.784 205.678 464.365 195.207C471.018 186.022 483.482 182.813 493.912 187.613L517.4 148.231C504.48 141.134 489.651 147.387 480.563 155.783V155.769Z" fill="#4C5A4B"/>
<g opacity="0.2">
<path d="M480.494 155.645C475.901 159.975 470.88 163.834 465.513 167.195C460.547 170.031 455.885 173.323 451.569 177.031C439.452 187.958 436.879 195.47 436.879 195.47C424.941 226.926 458.915 245.877 458.915 245.877L459.675 244.632C453.326 240.772 428.482 223.55 438.926 196.009C438.926 196.009 441.471 188.526 453.617 177.57C457.933 173.877 462.594 170.598 467.546 167.776C472.927 164.415 477.949 160.556 482.527 156.212C491.201 148.217 504.245 143.541 516.653 149.171L517.317 148.065C504.425 141.024 489.61 147.262 480.508 155.645H480.494Z" fill="white"/>
</g>
<path d="M430.571 207.726C430.709 208.293 430.806 208.86 430.848 209.441C430.903 210.133 431.014 210.81 431.138 211.488C431.29 212.263 431.401 213.162 431.65 214.144C431.899 215.112 432.12 216.191 432.48 217.312C432.84 218.432 433.241 219.622 433.67 220.881C434.707 223.564 435.966 226.151 437.432 228.641C438.94 231.103 440.641 233.455 442.537 235.654C443.422 236.678 444.266 237.605 445.137 238.421C446.009 239.237 446.797 240.012 447.558 240.675C448.319 241.339 449.052 241.907 449.66 242.405C450.269 242.903 450.85 243.331 451.32 243.65C451.818 243.968 452.289 244.327 452.731 244.728C452.192 244.466 451.68 244.175 451.196 243.829C450.601 243.47 450.02 243.069 449.467 242.654C448.706 242.128 447.987 241.561 447.281 240.966C446.41 240.261 445.58 239.527 444.777 238.739C443.892 237.923 443.035 236.982 442.108 235.986C440.185 233.787 438.442 231.421 436.92 228.931C435.44 226.414 434.182 223.786 433.158 221.074C432.729 219.802 432.286 218.612 431.996 217.464C431.705 216.302 431.429 215.237 431.235 214.241C431.041 213.245 430.917 212.346 430.792 211.557C430.682 210.88 430.613 210.188 430.585 209.51C430.53 208.929 430.53 208.334 430.557 207.753L430.571 207.726Z" fill="white"/>
<path d="M432.494 198.873C432.577 199.633 432.48 200.408 432.203 201.127C431.885 202.331 431.526 203.285 431.373 203.244C431.373 201.722 431.775 200.228 432.494 198.873Z" fill="white"/>
<path d="M463.106 220.189C463.106 220.189 463.244 220.369 463.48 220.756C463.715 221.13 464.102 221.669 464.641 222.347C466.205 224.339 468.1 226.068 470.23 227.465L470.327 227.52L470.258 227.617L456.798 250.04L456.688 250.22L456.508 250.123C452.358 247.689 448.485 244.839 444.957 241.602C440.96 237.992 437.501 233.856 434.666 229.305C431.567 224.311 429.644 218.709 429.008 212.913C428.745 209.856 428.842 206.785 429.299 203.756C429.838 200.657 430.696 197.614 431.844 194.681C432.148 193.837 432.522 193.007 432.95 192.219C434.693 189.065 436.782 186.105 439.175 183.38C441.471 180.724 443.934 178.193 446.52 175.799C451.362 171.235 456.701 167.209 462.456 163.806C467.657 160.791 472.595 157.374 477.229 153.556C479.401 151.786 481.324 149.835 483.427 148.244C484.478 147.401 485.529 146.709 486.58 145.976C487.632 145.243 488.683 144.634 489.776 144.095C491.809 143.002 493.939 142.103 496.153 141.425C498.131 140.83 500.164 140.415 502.225 140.221C506.735 139.765 511.286 140.373 515.491 142.02C516.321 142.31 517.137 142.656 517.912 143.043L519.35 143.776C519.682 143.942 519.835 144.039 519.835 144.039L519.337 143.818L517.87 143.126C517.082 142.739 516.28 142.393 515.45 142.103C514.329 141.688 513.195 141.356 512.033 141.079C508.837 140.332 505.531 140.124 502.267 140.47C500.233 140.678 498.228 141.093 496.277 141.701C494.092 142.407 491.989 143.306 489.983 144.385C488.932 144.924 487.881 145.616 486.829 146.266C485.778 146.916 484.727 147.677 483.731 148.521C481.628 150.098 479.747 152.048 477.561 153.847C472.941 157.706 467.989 161.164 462.76 164.221C457.033 167.597 451.722 171.594 446.908 176.131C444.349 178.511 441.928 181.028 439.646 183.67C437.28 186.368 435.219 189.3 433.49 192.413C433.089 193.173 432.729 193.976 432.439 194.792C431.29 197.697 430.447 200.699 429.921 203.756C428.524 212.512 430.391 221.462 435.164 228.987C437.958 233.51 441.375 237.618 445.331 241.215C448.803 244.452 452.635 247.301 456.743 249.736L456.466 249.805L470.064 227.507V227.659C467.934 226.22 466.052 224.45 464.517 222.416C463.978 221.711 463.507 220.964 463.106 220.189Z" fill="#299D3B"/>
<path d="M94.4467 269.628C95.332 276.835 95.4703 284.124 94.8478 291.401C94.336 297.487 94.4467 303.587 95.166 309.618C97.3654 328.044 102.359 334.379 102.359 334.379C122.334 365.379 161.508 346.206 161.508 346.206L151.051 322.276C147.828 323.52 144.383 324.046 140.967 323.783C128.116 322.856 118.668 311.583 119.871 298.594C120.48 290.709 125.073 283.599 132.031 279.781L111.433 233.496C96.4248 240.911 92.5931 255.67 94.4467 269.628Z" fill="#4C5A4B"/>
<path d="M98.4167 272.353C99.302 278.605 99.5648 284.941 99.2052 291.276C98.6657 296.961 98.6657 302.674 99.2052 308.332C101.156 324.544 105.79 330.976 105.79 330.976C124.602 358.863 159.696 342.015 159.696 342.015L150.982 322.386C138.753 326.868 125.446 320.588 121.269 308.36C117.603 297.611 122.168 285.605 132.114 279.85L113.494 237.937C100.243 244.397 96.7844 260.111 98.4029 272.38L98.4167 272.353Z" fill="#4C5A4B"/>
<g opacity="0.2">
<path d="M98.2784 272.325C99.1637 278.564 99.4265 284.899 99.0668 291.235C98.5135 296.92 98.5135 302.633 99.0668 308.304C101.003 324.516 105.651 330.949 105.651 330.949C124.464 358.85 159.544 342.029 159.544 342.029L158.963 340.687C152.143 343.647 123.745 353.994 107.27 329.579C107.27 329.579 102.622 323.188 100.685 306.935C100.16 301.277 100.173 295.578 100.713 289.907C101.073 283.585 100.81 277.25 99.9245 270.997C98.389 259.294 102.096 245.946 113.854 239.071L113.329 237.895C100.146 244.355 96.6876 260.069 98.2922 272.339L98.2784 272.325Z" fill="white"/>
</g>
<path d="M112.014 343.149C112.554 343.357 113.079 343.62 113.577 343.924C114.172 344.27 114.795 344.588 115.417 344.865C116.137 345.197 116.939 345.625 117.88 345.971C118.82 346.331 119.83 346.773 120.95 347.119C122.071 347.479 123.274 347.839 124.547 348.198C127.341 348.89 130.177 349.36 133.054 349.595C135.931 349.789 138.836 349.748 141.727 349.471C143.083 349.333 144.314 349.18 145.49 348.945C146.666 348.71 147.745 348.503 148.727 348.267C149.709 348.032 150.594 347.756 151.355 347.548C152.116 347.341 152.794 347.105 153.319 346.912C153.873 346.69 154.44 346.511 155.021 346.372C154.495 346.663 153.956 346.912 153.402 347.105C152.766 347.382 152.102 347.631 151.438 347.839C150.567 348.157 149.695 348.42 148.796 348.641C147.717 348.945 146.638 349.194 145.545 349.402C144.369 349.665 143.097 349.803 141.755 349.983C138.836 350.287 135.918 350.342 133.013 350.149C130.108 349.9 127.231 349.416 124.422 348.696C123.136 348.309 121.905 347.991 120.798 347.562C119.678 347.133 118.654 346.746 117.727 346.331C116.801 345.916 115.998 345.501 115.279 345.141C114.67 344.837 114.062 344.505 113.481 344.131C112.969 343.841 112.485 343.509 112.028 343.135L112.014 343.149Z" fill="white"/>
<path d="M105.9 336.482C106.578 336.855 107.145 337.381 107.574 338.017C108.376 338.972 108.943 339.816 108.819 339.912C107.588 339.027 106.578 337.851 105.9 336.482Z" fill="white"/>
<path d="M140.967 323.769C140.967 323.769 141.202 323.769 141.644 323.783C142.087 323.797 142.751 323.797 143.609 323.742C146.14 323.603 148.644 323.064 151.009 322.137L151.12 322.096L151.161 322.206L161.716 346.123L161.799 346.303L161.619 346.386C157.234 348.378 152.669 349.886 147.994 350.896C142.737 352.085 137.356 352.514 132.017 352.196C126.152 351.836 120.466 350.19 115.362 347.354C112.706 345.805 110.258 343.952 108.044 341.835C105.817 339.608 103.825 337.16 102.096 334.518C101.584 333.784 101.128 333.01 100.727 332.194C99.1498 328.943 97.9325 325.526 97.0887 322.013C96.2449 318.596 95.5948 315.138 95.1383 311.638C94.1977 305.054 94.004 298.372 94.5435 291.705C95.083 285.715 95.1383 279.712 94.6957 273.736C94.502 270.942 94.0178 268.244 93.9348 265.602C93.8518 264.261 93.8933 263.002 93.9072 261.729C93.9072 260.456 94.0178 259.239 94.2253 258.036C94.502 255.753 95 253.485 95.7193 251.285C96.3694 249.321 97.2132 247.426 98.2369 245.628C100.464 241.685 103.59 238.324 107.367 235.834C108.086 235.322 108.833 234.866 109.607 234.451L111.046 233.704C111.364 233.538 111.544 233.469 111.544 233.469L111.074 233.759L109.663 234.561C108.888 234.976 108.141 235.433 107.422 235.945C106.44 236.622 105.499 237.356 104.614 238.144C102.165 240.33 100.09 242.903 98.4859 245.766C97.4899 247.55 96.6599 249.432 96.0374 251.368C95.3596 253.554 94.8755 255.795 94.5988 258.063C94.4328 259.225 94.3913 260.484 94.3083 261.715C94.2253 262.946 94.253 264.247 94.3637 265.547C94.4467 268.175 94.9446 270.831 95.1521 273.667C95.6363 279.67 95.6086 285.715 95.083 291.733C94.5435 298.358 94.7372 304.998 95.6778 311.555C96.1481 315.027 96.7982 318.458 97.642 321.833C98.4859 325.319 99.6755 328.694 101.225 331.903C101.612 332.678 102.069 333.425 102.567 334.13C104.268 336.745 106.232 339.165 108.432 341.365C114.781 347.548 123.164 351.2 132.072 351.643C137.37 351.975 142.709 351.546 147.938 350.398C152.586 349.416 157.123 347.949 161.481 345.999L161.37 346.275L150.995 322.317L151.12 322.4C148.713 323.313 146.182 323.825 143.636 323.908C142.751 323.935 141.866 323.894 140.994 323.769H140.967Z" fill="#299D3B"/>
<path d="M331.058 340.728C331.058 340.728 333.174 330.672 351.973 330.935C370.772 331.198 385.601 345.501 394.606 357.148C403.611 368.795 419.505 380.235 425.591 378.492C431.678 376.749 429.229 349.651 429.229 349.651L392.227 303.394L355.68 286.448C355.68 286.448 320.724 300.752 319.659 301.014C318.594 301.277 313.282 330.672 313.282 330.672L331.044 340.728H331.058Z" fill="#FF725E"/>
<path d="M429.229 349.831C429.229 349.831 418.384 298.635 378.975 264.786C344.337 235.032 284.178 219.94 237.548 247.205C237.548 247.205 216.148 258.077 212.399 283.405C209.038 306.036 214.889 359.057 297.278 373.927C379.666 388.784 417.209 374.093 417.209 374.093C417.209 374.093 419.325 359.818 384.452 350.661C353.508 342.541 318.968 333.383 324.363 315.11C325.76 310.393 329.495 306.727 334.142 305.095C341.418 302.55 355.21 300.06 373.013 307.696C399.876 319.218 398.354 344.685 429.229 349.831Z" fill="#FF725E"/>
<path d="M314.915 310.448C322.233 310.448 328.167 306.547 328.167 301.734C328.167 296.921 322.233 293.019 314.915 293.019C307.596 293.019 301.663 296.921 301.663 301.734C301.663 306.547 307.596 310.448 314.915 310.448Z" fill="white"/>
<path d="M314.915 306.548C318.964 306.548 322.246 304.392 322.246 301.734C322.246 299.075 318.964 296.92 314.915 296.92C310.866 296.92 307.583 299.075 307.583 301.734C307.583 304.392 310.866 306.548 314.915 306.548Z" fill="#FF725E"/>
<path d="M324.363 315.11C325.76 310.393 329.495 306.727 334.142 305.095C341.418 302.55 355.21 300.06 373.013 307.696C385.96 313.256 392.323 322.04 398.88 330.243C398.88 330.243 391.908 314.737 375.032 303.822C358.156 292.908 336.439 295.689 326.437 301.72C317.64 307.018 313.31 322.926 325.248 334.85C337.186 346.787 376.499 348.558 377.315 348.765C348.459 341.074 319.369 331.972 324.363 315.096V315.11Z" fill="white"/>
<path d="M215.83 271.205C215.83 271.205 204.404 302.066 210.684 335.79C216.978 369.515 242.693 398.66 300.418 409.519C358.142 420.378 415.314 402.091 417.029 402.091C418.744 402.091 417.029 370.649 417.029 370.649C417.029 370.649 378.726 385.505 306.712 372.364C234.698 359.223 221.418 319.011 217.545 298.635C213.672 278.259 215.83 271.205 215.83 271.205Z" fill="#E0E0E0"/>
<g opacity="0.2">
<path d="M228.003 281.026C227.076 287.002 228.681 297.722 230.216 303.573C233.038 314.28 234.726 317.711 240.743 327.006C246.76 336.302 255.212 344.297 265.531 348.309C272.185 350.896 281.163 351.048 284.953 345.003C289.144 338.335 283.984 330.036 281.329 322.621C277.358 311.5 279.641 298.372 287.138 289.243C291.675 283.723 297.817 279.753 302.866 274.69C307.915 269.628 312.024 262.684 310.765 255.643C309.077 246.167 298.647 240.911 289.116 239.555C272.282 237.148 251.685 242.695 241.988 254.218C241.988 254.218 230.437 265.339 227.989 281.04L228.003 281.026Z" fill="white"/>
</g>
<path d="M396.21 296.408C399.461 293.877 401.661 290.239 403.376 286.49C412.063 267.428 408.923 244.258 398.092 226.345L373.953 199.412C370.965 198.098 367.272 198.499 364.644 200.45C362.016 202.4 360.549 205.803 360.95 209.054C354.905 211.336 350.341 217.118 349.538 223.537C348.736 229.941 351.724 236.692 357.022 240.385C353.439 244.189 352.194 250.04 353.937 254.965C355.68 259.889 360.328 263.666 365.501 264.357C362.97 269.614 362.278 275.991 364.727 281.275C367.175 286.573 373.165 290.335 378.892 289.215C377.84 293.199 380.731 297.529 384.632 298.856C388.533 300.184 392.973 298.912 396.224 296.38L396.21 296.408Z" fill="#4C5A4B"/>
<path d="M411.98 295.149C417.458 290.239 419.519 281.745 415.148 275.839C420.183 276.586 423.931 275.437 427.168 271.73C431.055 267.262 432.535 260.816 430.972 255.103C429.409 249.39 424.844 244.59 419.214 242.737C424.941 238.822 425.578 227.064 421.912 221.171C418.343 215.431 410.638 213.48 403.652 213.715C406.599 206.688 404.455 197.752 398.465 192.98C392.143 187.931 382.225 188.069 376.056 193.298C369.873 198.527 368.102 208.279 372.058 215.361C365.294 218.308 362.624 227.299 365.169 234.229C367.715 241.16 374.244 246.001 381.216 248.436C378.131 253.319 376.305 259.336 377.702 264.938C379.099 270.541 384.356 275.368 390.124 274.953C385.656 280.805 386.458 290.003 391.867 294.997C397.275 299.991 406.502 300.06 411.98 295.149Z" fill="#4C5A4B"/>
<path d="M364.243 229.263C364.284 230.135 353.813 240.772 340.754 246.942C327.696 253.111 323.048 252.821 323.048 252.821L329.868 275.935C329.868 275.935 346.315 268.673 353.951 270.015C361.587 271.357 388.215 277.665 388.215 277.665L386.61 267.954C386.61 267.954 367.341 265.575 366.982 261.771C366.622 257.967 386.721 256.666 386.721 256.666L387.648 243.968C387.648 243.968 350.673 258.368 348.833 253.941C347.007 249.515 375.807 235.682 375.807 235.682L364.229 229.25L364.243 229.263Z" fill="#4C5A4B"/>
<path opacity="0.3" d="M420.155 260.692C417.07 259.82 415.286 256.611 416.157 253.54C417.029 250.455 420.238 248.671 423.309 249.542C426.394 250.414 428.178 253.623 427.307 256.694C426.435 259.779 423.226 261.563 420.155 260.692Z" fill="white"/>
<path d="M388.92 191.666C388.92 191.666 389.308 191.652 389.972 191.79C390.636 191.929 391.576 192.219 392.697 192.717C394.91 193.699 397.787 195.746 399.765 198.956C401.744 202.179 402.255 205.665 402.131 208.085C402.075 209.303 401.91 210.271 401.73 210.935C401.55 211.585 401.412 211.945 401.37 211.931C401.246 211.903 401.647 210.451 401.619 208.085C401.619 205.734 401.024 202.414 399.143 199.343C397.262 196.272 394.564 194.252 392.462 193.187C390.359 192.095 388.879 191.804 388.92 191.666Z" fill="white"/>
<path d="M400.457 216.219C400.443 216.15 401.702 215.735 403.818 215.597C405.935 215.458 408.923 215.638 412.007 216.731C413.543 217.284 414.94 217.99 416.116 218.778C417.264 219.608 418.232 220.452 418.896 221.296C419.256 221.697 419.519 222.098 419.74 222.458C419.989 222.803 420.155 223.122 420.266 223.398C420.515 223.938 420.625 224.242 420.584 224.27C420.459 224.339 419.906 223.135 418.509 221.628C417.831 220.853 416.863 220.092 415.742 219.318C414.594 218.584 413.252 217.92 411.772 217.395C408.798 216.343 405.907 216.081 403.846 216.095C401.771 216.095 400.485 216.33 400.471 216.205L400.457 216.219Z" fill="white"/>
<path d="M428.897 260.609C428.773 260.609 428.828 259.419 428.482 257.565C428.15 255.726 427.348 253.208 425.688 250.87C424.028 248.546 421.926 246.942 420.293 246.029C418.661 245.102 417.527 244.756 417.554 244.632C417.568 244.549 418.772 244.729 420.529 245.572C422.271 246.402 424.54 248.007 426.269 250.442C427.998 252.89 428.773 255.56 428.98 257.469C429.202 259.405 428.98 260.595 428.884 260.581L428.897 260.609Z" fill="white"/>
<path d="M244.326 205.36C244.326 205.36 228.695 196.286 220.727 206.771C212.745 217.243 205.483 238.033 229.455 258.88C247.189 274.289 265.033 261.411 273.126 253.665C276.529 250.4 278.009 245.586 276.833 241.008C274.703 232.666 267.523 218.847 244.326 205.374V205.36Z" fill="#E0E0E0"/>
<path d="M244.326 205.36C244.326 205.36 244.492 205.429 244.782 205.595C245.1 205.775 245.529 206.024 246.082 206.342C247.217 206.992 248.89 207.975 250.965 209.372C255.101 212.138 261.091 216.344 267.067 223.039C269.999 226.414 272.946 230.412 275.118 235.239C275.657 236.443 276.155 237.701 276.57 239.002C276.971 240.302 277.4 241.644 277.497 243.082C277.746 245.932 277.027 248.961 275.367 251.479C274.564 252.765 273.458 253.872 272.337 254.868C271.217 255.892 270.055 256.901 268.824 257.842C266.375 259.751 263.733 261.535 260.828 262.974C257.923 264.399 254.783 265.519 251.477 266.086C248.171 266.709 244.685 266.488 241.338 265.685C237.949 264.938 234.919 263.251 232.139 261.411C229.414 259.447 227.062 257.164 224.766 254.896C220.284 250.262 216.715 244.964 214.737 239.334C212.731 233.718 212.386 227.894 213.299 222.679C214.225 217.45 216.356 212.913 218.749 209.137C219.357 208.196 220.007 207.311 220.658 206.467C221.405 205.692 222.027 204.821 222.899 204.267C224.475 202.939 226.357 202.289 228.086 201.874C231.627 201.197 234.753 201.75 237.16 202.386C239.581 203.05 241.365 203.839 242.555 204.406C243.15 204.696 243.593 204.931 243.883 205.097C244.173 205.263 244.326 205.36 244.312 205.374C244.312 205.374 244.146 205.305 243.841 205.167C243.537 205.014 243.095 204.807 242.486 204.544C241.282 204.018 239.498 203.271 237.091 202.663C234.698 202.082 231.613 201.584 228.169 202.276C226.495 202.69 224.683 203.341 223.175 204.627C222.345 205.167 221.737 206.01 221.031 206.771C220.395 207.601 219.758 208.486 219.178 209.427C216.826 213.162 214.765 217.658 213.88 222.79C213.008 227.908 213.368 233.607 215.346 239.112C217.296 244.632 220.824 249.833 225.264 254.412C227.533 256.652 229.87 258.921 232.54 260.83C235.251 262.628 238.212 264.274 241.504 264.994C244.741 265.768 248.13 265.99 251.353 265.381C254.576 264.828 257.647 263.749 260.496 262.338C263.346 260.913 265.96 259.17 268.381 257.289C269.598 256.362 270.746 255.366 271.853 254.356C272.987 253.36 274.011 252.337 274.786 251.105C276.376 248.712 277.082 245.835 276.847 243.124C276.764 241.768 276.349 240.468 275.961 239.182C275.546 237.909 275.076 236.664 274.55 235.474C272.448 230.702 269.543 226.732 266.666 223.371C260.787 216.689 254.866 212.429 250.799 209.607C248.752 208.182 247.106 207.172 245.999 206.467C245.474 206.135 245.059 205.858 244.741 205.665C244.464 205.485 244.312 205.374 244.326 205.374V205.36Z" fill="#299D3B"/>
<g opacity="0.21">
<path d="M240.356 244.701C250.094 252.226 262.723 254.951 274.703 252.115L274.758 252.06C276.888 249.847 277.815 246.762 277.331 243.719C276.086 235.931 270.152 220.466 244.118 205.457C244.118 205.457 228.487 196.383 220.519 206.868C219.966 207.56 219.454 208.334 218.929 209.095C221.114 223.315 228.819 236.111 240.356 244.701Z" fill="#299D3B"/>
</g>
<path d="M251.878 200.035L235.403 216.496C236.787 224.837 241.642 232.196 248.766 236.747C260.233 243.207 262.903 238.891 262.903 238.891L277.276 224.754C278.894 223.163 279.295 220.715 278.285 218.695C274.924 212.014 270.082 206.149 264.107 201.584C253.428 194.488 251.865 200.035 251.865 200.035H251.878Z" fill="#E0E0E0"/>
<path d="M251.878 200.035C251.878 200.035 251.878 199.924 251.975 199.716C252.058 199.509 252.238 199.232 252.515 198.914C253.096 198.292 254.368 197.683 256.001 197.877C257.619 198.015 259.514 198.707 261.52 199.786C262.032 200.048 262.544 200.325 263.055 200.657C263.567 200.989 264.134 201.266 264.632 201.695C265.67 202.483 266.707 203.354 267.772 204.323C269.889 206.259 272.047 208.556 274.066 211.267C275.076 212.623 276.044 214.075 276.971 215.61C277.428 216.385 277.884 217.174 278.299 218.003C278.756 218.778 279.143 219.774 279.171 220.77C279.226 221.766 278.991 222.803 278.493 223.703C278.244 224.159 277.939 224.574 277.566 224.948L276.515 225.985C275.104 227.368 273.679 228.793 272.213 230.232C269.28 233.109 266.265 236.097 263.152 239.154L263.207 239.085C263.138 239.182 263.097 239.237 263.028 239.306C262.267 240.095 261.243 240.44 260.275 240.579C259.293 240.703 258.311 240.662 257.37 240.496C255.475 240.191 253.718 239.527 252.044 238.794C251.214 238.421 250.384 238.033 249.596 237.591C248.78 237.203 248.033 236.692 247.3 236.18C245.861 235.142 244.533 233.994 243.344 232.791C238.53 227.908 235.971 221.877 235.127 216.551L235.099 216.413L235.196 216.316C240.245 211.336 244.381 207.269 247.286 204.406C248.711 203.036 249.831 201.944 250.633 201.155C250.993 200.809 251.284 200.533 251.533 200.311C251.74 200.131 251.851 200.035 251.865 200.035C251.865 200.035 251.795 200.145 251.602 200.353C251.38 200.588 251.118 200.878 250.772 201.238C249.983 202.054 248.904 203.161 247.535 204.572C244.658 207.491 240.563 211.64 235.569 216.703L235.652 216.454C236.538 221.683 239.083 227.548 243.8 232.307C244.976 233.482 246.276 234.603 247.687 235.613C248.393 236.111 249.112 236.595 249.914 236.968C250.689 237.397 251.491 237.771 252.307 238.144C253.94 238.863 255.669 239.5 257.453 239.79C258.352 239.942 259.265 239.97 260.15 239.873C261.022 239.749 261.907 239.417 262.474 238.836L262.571 238.711L262.627 238.642C265.739 235.585 268.768 232.611 271.701 229.734C273.167 228.295 274.606 226.884 276.017 225.501C276.722 224.782 277.469 224.187 277.884 223.384C278.313 222.596 278.534 221.697 278.493 220.812C278.465 219.912 278.161 219.11 277.704 218.308C277.289 217.492 276.847 216.703 276.404 215.942C275.505 214.407 274.55 212.968 273.568 211.627C271.59 208.943 269.488 206.647 267.413 204.71C266.375 203.756 265.352 202.857 264.342 202.082C263.871 201.653 263.304 201.39 262.806 201.044C262.308 200.712 261.81 200.422 261.312 200.159C259.348 199.066 257.522 198.361 255.959 198.181C254.396 197.96 253.193 198.471 252.598 199.039C252.017 199.62 251.892 200.076 251.865 200.048L251.878 200.035Z" fill="#299D3B"/>
<g opacity="0.15">
<path d="M239.041 216.717C238.17 215.984 240.245 211.986 244.077 208.099C247.908 204.212 252.127 202.193 252.819 203.175C253.497 204.171 250.744 207.338 247.092 211.059C243.44 214.78 239.982 217.492 239.041 216.703V216.717Z" fill="white"/>
</g>
<g opacity="0.15">
<path d="M275.74 220.272C275.242 220.507 273.803 219.594 272.005 217.63C270.207 215.666 268.021 212.581 265.587 209.51C264.356 207.988 263.138 206.619 261.99 205.457C260.967 204.42 259.86 203.465 258.657 202.635C256.665 201.293 255.088 200.712 255.074 199.938C255.06 199.163 257.052 199.011 259.901 199.786C261.548 200.353 263.069 201.183 264.439 202.262C266.043 203.548 267.51 205.014 268.796 206.619C270.995 209.427 272.863 212.47 274.398 215.693C275.726 218.266 276.307 219.885 275.754 220.272H275.74Z" fill="white"/>
</g>
<path d="M276.1 222.651C276.1 222.651 275.629 222.61 274.827 222.402C274.011 222.209 272.863 221.821 271.466 221.254C268.685 220.134 265.006 218.114 261.548 215.085C258.103 212.042 255.613 208.652 254.161 206.038C253.428 204.738 252.902 203.645 252.598 202.857C252.293 202.082 252.141 201.639 252.183 201.625C252.307 201.57 253.04 203.272 254.59 205.775C256.139 208.293 258.643 211.557 262.018 214.545C265.407 217.519 268.976 219.58 271.659 220.798C274.343 222.029 276.127 222.541 276.086 222.665L276.1 222.651Z" fill="#299D3B"/>
<path d="M267.828 253.194C267.828 253.194 267.606 253.25 267.164 253.263C266.721 253.263 266.085 253.346 265.241 253.305C263.581 253.305 261.16 253.125 258.228 252.558C252.376 251.465 244.478 248.311 237.437 242.46C230.396 236.609 225.693 229.637 222.871 224.422C221.446 221.808 220.45 219.608 219.814 218.073C219.482 217.312 219.274 216.703 219.122 216.288C218.97 215.873 218.901 215.652 218.929 215.652C218.984 215.624 219.371 216.468 220.077 217.962C220.782 219.456 221.847 221.614 223.314 224.173C226.232 229.291 230.935 236.138 237.893 241.907C244.837 247.675 252.584 250.857 258.338 252.06C261.216 252.696 263.609 252.945 265.255 253.028C266.901 253.125 267.828 253.125 267.828 253.18V253.194Z" fill="#299D3B"/>
<path d="M422.437 323.576C422.437 323.576 419.214 341.351 431.775 345.307C444.335 349.25 466.357 349.042 477.824 319.412C486.304 297.501 468.127 285.079 458.099 280.099C453.866 277.997 448.844 278.259 444.944 280.901C437.833 285.743 427.251 297.169 422.451 323.576H422.437Z" fill="#E0E0E0"/>
<path d="M422.437 323.576C422.437 323.576 422.437 323.396 422.507 323.064C422.576 322.69 422.659 322.206 422.769 321.598C423.005 320.297 423.35 318.402 423.959 315.968C425.162 311.14 427.071 304.085 431.346 296.187C433.518 292.286 436.284 288.15 440.088 284.47C441.043 283.557 442.052 282.672 443.131 281.828C444.21 281.012 445.331 280.154 446.659 279.573C449.245 278.37 452.344 278.024 455.29 278.73C456.771 279.048 458.182 279.712 459.509 280.431C460.851 281.137 462.193 281.884 463.507 282.727C466.122 284.387 468.708 286.269 471.046 288.496C473.37 290.737 475.486 293.31 477.146 296.228C478.862 299.119 479.83 302.481 480.217 305.897C480.674 309.342 480.107 312.772 479.318 316.009C478.405 319.246 477.05 322.234 475.694 325.153C472.858 330.935 469.082 336.095 464.462 339.871C459.855 343.661 454.488 345.957 449.287 346.87C444.058 347.769 439.065 347.313 434.693 346.331C433.601 346.082 432.549 345.778 431.526 345.446C430.543 345.003 429.52 344.712 428.69 344.076C426.905 343.052 425.647 341.503 424.678 340.009C422.839 336.897 422.299 333.784 422.078 331.308C421.87 328.805 422.009 326.868 422.147 325.554C422.216 324.904 422.285 324.406 422.341 324.074C422.396 323.742 422.437 323.576 422.451 323.576C422.451 323.576 422.451 323.756 422.41 324.088C422.368 324.42 422.327 324.918 422.285 325.568C422.202 326.868 422.105 328.805 422.354 331.281C422.617 333.729 423.198 336.8 425.01 339.802C425.965 341.24 427.196 342.72 428.925 343.689C429.714 344.284 430.709 344.56 431.664 344.989C432.66 345.293 433.711 345.598 434.79 345.833C439.106 346.773 444.031 347.188 449.162 346.275C454.267 345.363 459.509 343.094 464.019 339.359C468.542 335.652 472.25 330.575 475.044 324.848C476.386 321.957 477.727 318.983 478.613 315.829C479.387 312.662 479.927 309.328 479.484 305.98C479.111 302.661 478.17 299.41 476.51 296.588C474.892 293.738 472.831 291.221 470.548 289.021C468.252 286.822 465.707 284.968 463.12 283.322C461.833 282.492 460.505 281.745 459.178 281.04C457.85 280.307 456.535 279.698 455.124 279.38C452.33 278.702 449.384 279.006 446.922 280.154C445.677 280.694 444.584 281.524 443.505 282.326C442.44 283.142 441.444 284.014 440.503 284.913C436.727 288.51 433.974 292.59 431.788 296.436C427.486 304.237 425.508 311.237 424.222 316.037C423.572 318.444 423.184 320.339 422.908 321.625L422.576 323.078C422.493 323.41 422.451 323.576 422.437 323.576Z" fill="#299D3B"/>
<g opacity="0.21">
<path d="M460.796 313.948C464.572 302.232 462.843 289.436 456.107 279.131L456.037 279.103C453.229 277.844 450.006 278.024 447.323 279.518C440.42 283.336 427.888 294.167 422.603 323.742C422.603 323.742 419.38 341.517 431.941 345.473C432.784 345.75 433.684 345.985 434.583 346.206C447.226 339.318 456.646 327.739 460.81 313.962L460.796 313.948Z" fill="#299D3B"/>
</g>
<path d="M414.871 318.278L435.952 328.182C443.325 324.046 448.595 316.978 450.463 308.733C452.648 295.744 447.682 294.707 447.682 294.707L429.506 285.978C427.473 284.996 425.024 285.439 423.461 287.085C418.315 292.521 414.442 299.064 412.174 306.229C409.13 318.679 414.871 318.264 414.871 318.264V318.278Z" fill="#E0E0E0"/>
<path d="M414.871 318.278C414.871 318.278 414.76 318.305 414.539 318.292C414.318 318.292 413.999 318.209 413.598 318.056C412.81 317.724 411.814 316.729 411.44 315.124C411.012 313.547 411.025 311.541 411.357 309.286C411.427 308.719 411.523 308.138 411.662 307.543C411.814 306.949 411.869 306.312 412.104 305.704C412.492 304.459 412.962 303.186 413.515 301.858C414.608 299.216 416.047 296.394 417.9 293.586C418.827 292.175 419.865 290.764 420.999 289.381C421.566 288.689 422.161 287.998 422.797 287.32C423.378 286.628 424.18 285.923 425.107 285.563C426.034 285.176 427.071 285.051 428.095 285.203C428.607 285.286 429.105 285.425 429.575 285.646C430.018 285.854 430.461 286.061 430.903 286.282C432.688 287.14 434.5 287.998 436.353 288.883C440.061 290.654 443.892 292.493 447.821 294.375L447.738 294.347C447.848 294.375 447.918 294.402 448.014 294.444C449.01 294.9 449.688 295.73 450.145 296.602C450.587 297.487 450.878 298.428 451.058 299.368C451.417 301.25 451.376 303.131 451.265 304.957C451.196 305.87 451.113 306.769 450.961 307.668C450.864 308.567 450.643 309.439 450.421 310.296C449.937 311.998 449.301 313.63 448.568 315.179C445.607 321.363 440.808 325.817 436.091 328.417L435.966 328.486L435.842 328.431C429.451 325.374 424.222 322.87 420.529 321.1C418.758 320.228 417.361 319.55 416.337 319.052C415.895 318.831 415.535 318.637 415.244 318.499C414.995 318.375 414.871 318.292 414.871 318.278C414.871 318.264 415.009 318.305 415.258 318.416C415.549 318.541 415.908 318.693 416.365 318.9C417.388 319.357 418.813 320.007 420.598 320.809C424.333 322.524 429.603 324.959 436.063 327.947H435.814C440.42 325.346 445.096 320.961 447.959 314.903C448.665 313.395 449.273 311.804 449.744 310.13C449.965 309.3 450.172 308.456 450.269 307.571C450.408 306.7 450.49 305.814 450.56 304.915C450.67 303.131 450.698 301.291 450.366 299.507C450.2 298.621 449.923 297.75 449.522 296.948C449.107 296.173 448.499 295.454 447.752 295.108L447.599 295.052L447.516 295.025C443.588 293.143 439.756 291.304 436.063 289.519C434.209 288.634 432.397 287.749 430.613 286.891C429.7 286.476 428.884 285.964 427.984 285.854C427.099 285.715 426.172 285.812 425.356 286.158C424.526 286.49 423.876 287.043 423.267 287.749C422.645 288.413 422.05 289.09 421.483 289.782C420.349 291.152 419.311 292.535 418.384 293.918C416.531 296.685 415.078 299.451 413.972 302.066C413.418 303.366 412.934 304.639 412.533 305.842C412.298 306.437 412.229 307.059 412.077 307.64C411.938 308.221 411.828 308.788 411.745 309.356C411.385 311.569 411.33 313.533 411.703 315.055C412.021 316.604 412.92 317.558 413.654 317.918C414.401 318.278 414.871 318.236 414.857 318.264L414.871 318.278Z" fill="#299D3B"/>
<g opacity="0.15">
<path d="M434.915 324.682C434.514 325.748 430.059 325.153 425.093 322.87C420.127 320.588 416.794 317.296 417.499 316.327C418.205 315.345 422.133 316.867 426.864 319.039C431.595 321.21 435.33 323.534 434.901 324.696L434.915 324.682Z" fill="white"/>
</g>
<g opacity="0.15">
<path d="M425.799 288.966C426.186 289.353 425.826 291.013 424.582 293.365C423.337 295.716 421.179 298.829 419.131 302.163C418.122 303.85 417.25 305.441 416.545 306.921C415.908 308.235 415.397 309.605 415.023 311.016C414.428 313.34 414.428 315.027 413.695 315.304C412.962 315.58 412.16 313.754 411.911 310.808C411.883 309.079 412.146 307.35 412.699 305.704C413.363 303.753 414.235 301.886 415.314 300.129C417.209 297.114 419.436 294.305 421.953 291.774C423.918 289.644 425.246 288.551 425.799 288.952V288.966Z" fill="white"/>
</g>
<path d="M427.915 287.832C427.915 287.832 428.026 288.288 428.109 289.118C428.206 289.948 428.233 291.165 428.178 292.659C428.067 295.647 427.417 299.797 425.73 304.085C424.042 308.36 421.69 311.846 419.726 314.1C418.744 315.235 417.9 316.106 417.264 316.646C416.641 317.199 416.282 317.489 416.24 317.448C416.157 317.351 417.499 316.092 419.325 313.768C421.165 311.458 423.392 308 425.052 303.809C426.698 299.617 427.431 295.564 427.652 292.618C427.888 289.671 427.777 287.832 427.901 287.818L427.915 287.832Z" fill="#299D3B"/>
<path d="M459.468 285.231C459.468 285.231 459.593 285.425 459.758 285.826C459.924 286.227 460.201 286.822 460.45 287.61C461.017 289.173 461.667 291.511 462.124 294.471C463.078 300.35 462.788 308.858 459.676 317.462C456.563 326.08 451.597 332.858 447.641 337.284C445.663 339.511 443.934 341.199 442.703 342.305C442.094 342.873 441.596 343.288 441.264 343.564C440.932 343.841 440.738 343.979 440.725 343.965C440.683 343.924 441.347 343.274 442.509 342.098C443.671 340.922 445.331 339.193 447.254 336.938C451.085 332.456 455.913 325.706 458.984 317.213C462.055 308.719 462.414 300.364 461.598 294.541C461.211 291.622 460.644 289.284 460.16 287.707C459.689 286.116 459.371 285.259 459.44 285.231H459.468Z" fill="#299D3B"/>
<path d="M134.645 403.723C134.645 403.723 131.422 421.499 143.982 425.455C156.542 429.397 178.564 429.19 190.032 399.56C198.511 377.648 180.335 365.227 170.306 360.247C166.073 358.144 161.052 358.407 157.151 361.049C150.041 365.89 139.459 377.316 134.659 403.723H134.645Z" fill="#E0E0E0"/>
<path d="M134.645 403.723C134.645 403.723 134.645 403.543 134.714 403.212C134.783 402.838 134.866 402.354 134.977 401.745C135.212 400.445 135.558 398.55 136.167 396.115C137.37 391.288 139.279 384.233 143.553 376.334C145.725 372.433 148.492 368.297 152.296 364.618C153.25 363.705 154.26 362.82 155.339 361.976C156.418 361.16 157.538 360.302 158.866 359.721C161.453 358.518 164.552 358.172 167.498 358.877C168.978 359.195 170.389 359.859 171.717 360.579C173.059 361.284 174.401 362.031 175.715 362.875C178.329 364.535 180.916 366.416 183.254 368.643C185.578 370.884 187.694 373.457 189.354 376.376C191.069 379.267 192.037 382.628 192.425 386.045C192.881 389.489 192.314 392.92 191.526 396.157C190.613 399.394 189.257 402.382 187.901 405.3C185.066 411.082 181.289 416.242 176.669 420.018C172.063 423.809 166.696 426.105 161.495 427.018C156.266 427.917 151.272 427.461 146.901 426.478C145.808 426.229 144.757 425.925 143.733 425.593C142.751 425.15 141.727 424.86 140.897 424.224C139.113 423.2 137.854 421.651 136.886 420.157C135.046 417.044 134.507 413.932 134.285 411.456C134.078 408.952 134.216 407.002 134.354 405.701C134.424 405.051 134.493 404.553 134.548 404.221C134.603 403.889 134.645 403.723 134.659 403.723C134.659 403.723 134.659 403.903 134.617 404.235C134.576 404.567 134.534 405.065 134.493 405.715C134.41 407.016 134.313 408.966 134.562 411.428C134.825 413.877 135.406 416.948 137.218 419.949C138.172 421.388 139.403 422.868 141.133 423.836C141.921 424.431 142.917 424.708 143.871 425.137C144.867 425.441 145.919 425.745 146.998 425.98C151.314 426.921 156.238 427.336 161.37 426.423C166.474 425.51 171.717 423.241 176.227 419.507C180.75 415.799 184.457 410.723 187.251 404.996C188.593 402.105 189.935 399.131 190.82 395.977C191.595 392.809 192.134 389.475 191.692 386.128C191.318 382.808 190.378 379.557 188.718 376.735C187.099 373.886 185.038 371.368 182.756 369.169C180.459 366.969 177.914 365.116 175.327 363.47C174.041 362.64 172.713 361.893 171.385 361.187C170.057 360.454 168.743 359.846 167.332 359.527C164.538 358.85 161.591 359.154 159.129 360.302C157.884 360.842 156.791 361.671 155.712 362.474C154.647 363.29 153.651 364.161 152.711 365.061C148.934 368.657 146.182 372.738 143.996 376.583C139.694 384.385 137.716 391.384 136.429 396.184C135.779 398.591 135.392 400.486 135.115 401.773C134.977 402.382 134.866 402.866 134.783 403.225C134.7 403.557 134.659 403.723 134.645 403.723Z" fill="#299D3B"/>
<g opacity="0.21">
<path d="M173.003 394.11C176.78 382.393 175.051 369.598 168.314 359.292L168.245 359.265C165.437 358.006 162.214 358.186 159.53 359.68C152.628 363.497 140.095 374.329 134.811 403.903C134.811 403.903 131.588 421.678 144.148 425.635C144.992 425.911 145.891 426.146 146.79 426.368C159.433 419.479 168.854 407.901 173.017 394.123L173.003 394.11Z" fill="#299D3B"/>
</g>
<path d="M127.078 398.439L148.16 408.343C155.533 404.207 160.803 397.139 162.67 388.895C164.856 375.905 159.89 374.868 159.89 374.868L141.714 366.139C139.68 365.157 137.232 365.6 135.669 367.246C130.523 372.682 126.65 379.225 124.381 386.391C121.338 398.84 127.078 398.425 127.078 398.425V398.439Z" fill="#E0E0E0"/>
<path d="M127.078 398.439C127.078 398.439 126.968 398.467 126.746 398.453C126.525 398.453 126.207 398.37 125.806 398.218C125.017 397.886 124.021 396.89 123.648 395.285C123.219 393.708 123.233 391.703 123.565 389.448C123.634 388.881 123.731 388.3 123.869 387.705C124.021 387.11 124.077 386.474 124.312 385.865C124.699 384.62 125.169 383.348 125.723 382.02C126.816 379.377 128.254 376.569 130.108 373.748C131.035 372.337 132.072 370.926 133.206 369.542C133.773 368.851 134.368 368.159 135.005 367.481C135.586 366.79 136.388 366.084 137.315 365.724C138.241 365.337 139.279 365.213 140.303 365.365C140.814 365.448 141.312 365.586 141.783 365.807C142.225 366.015 142.668 366.222 143.111 366.444C144.895 367.301 146.707 368.159 148.561 369.044C152.268 370.815 156.1 372.655 160.028 374.536L159.945 374.508C160.056 374.536 160.125 374.564 160.222 374.605C161.218 375.062 161.896 375.892 162.352 376.763C162.795 377.648 163.085 378.589 163.265 379.53C163.625 381.411 163.583 383.292 163.473 385.118C163.403 386.031 163.32 386.93 163.168 387.829C163.071 388.729 162.85 389.6 162.629 390.458C162.145 392.159 161.508 393.791 160.775 395.341C157.815 401.524 153.015 405.978 148.298 408.579L148.173 408.648L148.049 408.593C141.658 405.535 136.429 403.032 132.736 401.261C130.965 400.39 129.568 399.712 128.545 399.214C128.102 398.992 127.742 398.799 127.452 398.66C127.203 398.536 127.078 398.453 127.078 398.439C127.078 398.425 127.217 398.467 127.466 398.577C127.756 398.702 128.116 398.854 128.572 399.062C129.596 399.518 131.021 400.168 132.805 400.971C136.54 402.686 141.81 405.12 148.27 408.108H148.021C152.628 405.508 157.303 401.123 160.167 395.064C160.872 393.556 161.481 391.965 161.951 390.292C162.172 389.462 162.38 388.618 162.477 387.733C162.615 386.861 162.698 385.976 162.767 385.077C162.878 383.292 162.905 381.452 162.573 379.668C162.407 378.783 162.131 377.911 161.73 377.109C161.315 376.32 160.706 375.615 159.959 375.269L159.807 375.214L159.724 375.186C155.795 373.305 151.964 371.465 148.27 369.681C146.417 368.795 144.605 367.91 142.82 367.052C141.907 366.637 141.091 366.126 140.192 366.015C139.307 365.877 138.38 365.973 137.564 366.319C136.734 366.651 136.084 367.205 135.475 367.91C134.852 368.574 134.258 369.252 133.69 369.944C132.556 371.313 131.519 372.696 130.592 374.08C128.738 376.846 127.286 379.613 126.179 382.227C125.626 383.527 125.142 384.8 124.741 386.003C124.505 386.598 124.436 387.221 124.284 387.802C124.146 388.383 124.035 388.95 123.952 389.517C123.592 391.73 123.537 393.695 123.911 395.216C124.229 396.765 125.128 397.72 125.861 398.08C126.608 398.439 127.078 398.398 127.065 398.425L127.078 398.439Z" fill="#299D3B"/>
<g opacity="0.15">
<path d="M147.122 404.83C146.721 405.895 142.267 405.3 137.301 403.018C132.335 400.735 129.001 397.457 129.707 396.475C130.412 395.493 134.341 397.014 139.071 399.186C143.802 401.358 147.537 403.682 147.108 404.844L147.122 404.83Z" fill="white"/>
</g>
<g opacity="0.15">
<path d="M138.02 369.114C138.407 369.501 138.048 371.161 136.803 373.512C135.558 375.864 133.4 378.976 131.353 382.31C130.343 383.998 129.471 385.588 128.766 387.069C128.13 388.383 127.618 389.752 127.244 391.163C126.65 393.487 126.65 395.175 125.916 395.451C125.183 395.728 124.381 393.902 124.132 390.956C124.104 389.227 124.367 387.497 124.92 385.851C125.584 383.901 126.456 382.033 127.535 380.277C129.43 377.261 131.657 374.453 134.175 371.922C136.139 369.791 137.467 368.699 138.02 369.1V369.114Z" fill="white"/>
</g>
<path d="M140.123 367.979C140.123 367.979 140.233 368.436 140.316 369.266C140.413 370.096 140.441 371.313 140.386 372.807C140.275 375.795 139.625 379.945 137.937 384.233C136.25 388.507 133.898 391.993 131.934 394.248C130.952 395.382 130.108 396.254 129.471 396.793C128.849 397.346 128.489 397.637 128.448 397.595C128.365 397.499 129.707 396.24 131.533 393.916C133.372 391.606 135.599 388.148 137.259 383.956C138.905 379.765 139.639 375.712 139.86 372.765C140.095 369.819 139.984 367.979 140.109 367.965L140.123 367.979Z" fill="#299D3B"/>
<path d="M171.675 365.379C171.675 365.379 171.8 365.572 171.966 365.973C172.132 366.375 172.409 366.969 172.658 367.758C173.225 369.321 173.875 371.659 174.331 374.619C175.286 380.498 174.995 389.005 171.883 397.609C168.771 406.227 163.805 413.005 159.848 417.432C157.87 419.659 156.141 421.346 154.91 422.453C154.301 423.02 153.803 423.435 153.471 423.712C153.139 423.988 152.946 424.127 152.932 424.113C152.89 424.071 153.554 423.421 154.716 422.246C155.878 421.07 157.538 419.341 159.461 417.086C163.293 412.604 168.12 405.854 171.191 397.36C174.262 388.867 174.622 380.512 173.806 374.688C173.418 371.769 172.851 369.432 172.367 367.855C171.897 366.264 171.579 365.406 171.648 365.379H171.675Z" fill="#299D3B"/>
<path d="M316.063 470.564C312.411 468.752 308.067 468.973 304.706 471.255C298.564 475.433 289.435 485.296 285.299 508.092L285.437 508.244C285.437 508.244 284.344 515.617 286.059 519.048C286.059 519.048 325.732 520.002 327.088 519.947C328.443 519.892 333.008 507.705 333.008 507.705C340.326 488.782 324.722 474.866 316.063 470.564Z" fill="#E0E0E0"/>
<path d="M316.063 470.564C316.063 470.564 318.248 471.421 321.637 473.911C323.297 475.184 325.276 476.858 327.295 479.057C329.273 481.284 331.32 484.065 332.87 487.509C334.419 490.939 335.401 495.089 335.111 499.544C334.889 504.025 333.119 508.521 331.237 513.072C330.753 514.22 330.255 515.368 329.716 516.516C329.135 517.665 328.665 518.827 327.738 519.933C327.599 520.058 327.475 520.237 327.101 520.293H326.617L325.635 520.265C324.985 520.265 324.321 520.237 323.657 520.224C322.329 520.196 321.001 520.168 319.659 520.141C314.278 520.03 308.704 519.905 302.991 519.781C297.181 519.656 291.496 519.518 286.059 519.407H285.838L285.755 519.214C284.925 517.388 284.814 515.465 284.759 513.625C284.731 511.772 284.87 509.973 285.105 508.203L285.202 508.493L285.063 508.341L284.939 508.217L284.967 508.051C285.727 504.122 286.599 500.36 287.705 496.832C288.826 493.319 290.112 490.027 291.565 487.039C294.484 481.063 298.163 476.346 301.87 473.192C303.71 471.629 305.522 470.315 307.39 469.761C309.229 469.18 310.903 469.153 312.217 469.319C313.531 469.485 314.514 469.831 315.136 470.093C315.772 470.356 316.063 470.564 316.063 470.564C316.035 470.661 314.79 469.831 312.19 469.54C310.903 469.416 309.271 469.471 307.5 470.066C305.716 470.619 303.959 471.933 302.147 473.496C298.537 476.65 294.926 481.339 292.09 487.274C290.666 490.248 289.407 493.512 288.314 496.998C287.235 500.498 286.378 504.233 285.631 508.148L285.534 507.843L285.672 507.982L285.783 508.106L285.755 508.272C285.534 509.987 285.409 511.786 285.437 513.584C285.478 515.368 285.617 517.25 286.364 518.868L286.059 518.674C291.496 518.785 297.167 518.91 302.977 519.034C308.676 519.159 314.251 519.283 319.632 519.407C320.973 519.435 322.315 519.463 323.629 519.504C324.293 519.518 324.944 519.532 325.594 519.546L326.576 519.573H327.06C327.06 519.573 327.143 519.532 327.226 519.435C327.973 518.55 328.54 517.319 329.08 516.212C329.619 515.078 330.117 513.93 330.601 512.795C332.51 508.244 334.267 503.859 334.502 499.488C334.806 495.145 333.88 491.078 332.386 487.703C330.892 484.3 328.914 481.547 326.977 479.306C324.999 477.107 323.076 475.419 321.444 474.119C319.784 472.86 318.428 471.975 317.488 471.407L316.409 470.785C316.16 470.647 316.049 470.564 316.049 470.55L316.063 470.564Z" fill="#299D3B"/>
<g opacity="0.21">
<path d="M318.401 499.792C321.665 489.681 320.171 478.628 314.361 469.734L314.292 469.706C311.871 468.627 309.091 468.779 306.767 470.066C300.819 473.358 289.988 482.709 285.423 508.244C285.423 508.244 284.33 513.999 285.769 518.619C286.488 518.868 303.226 519.49 304.001 519.684C314.915 513.736 314.804 511.703 318.401 499.806V499.792Z" fill="#299D3B"/>
</g>
<path d="M278.756 503.527L296.946 512.076C303.309 508.507 307.86 502.407 309.465 495.297C311.346 484.092 307.058 483.179 307.058 483.179L291.357 475.654C289.601 474.81 287.484 475.198 286.142 476.609C281.702 481.298 278.368 486.942 276.404 493.139C273.776 503.887 278.742 503.527 278.742 503.527H278.756Z" fill="#E0E0E0"/>
<path d="M278.756 503.527C278.756 503.527 278.659 503.555 278.465 503.541C278.271 503.541 277.995 503.472 277.649 503.348C276.971 503.057 276.1 502.199 275.768 500.816C275.394 499.461 275.408 497.718 275.685 495.767C275.809 494.785 276.017 493.748 276.321 492.669C276.653 491.59 277.068 490.497 277.538 489.349C278.479 487.066 279.724 484.632 281.329 482.197C282.131 480.98 283.03 479.763 284.012 478.559C284.51 477.964 285.022 477.356 285.561 476.775C286.059 476.18 286.765 475.557 287.567 475.239C288.369 474.893 289.282 474.783 290.168 474.921C290.61 474.99 291.053 475.115 291.454 475.308L292.602 475.862C294.138 476.595 295.715 477.342 297.305 478.116C300.501 479.652 303.807 481.229 307.21 482.861L307.127 482.833C307.237 482.861 307.293 482.889 307.376 482.916C308.261 483.318 308.842 484.051 309.243 484.812C309.631 485.586 309.88 486.388 310.032 487.205C310.336 488.837 310.308 490.469 310.212 492.046C310.142 492.835 310.073 493.623 309.949 494.384C309.866 495.159 309.672 495.919 309.478 496.666C309.05 498.146 308.51 499.557 307.874 500.885C305.315 506.239 301.165 510.084 297.07 512.325L296.946 512.394L296.821 512.339C291.316 509.697 286.82 507.525 283.611 505.99C282.089 505.243 280.886 504.648 280.001 504.205C279.627 504.012 279.323 503.846 279.06 503.721C278.852 503.61 278.742 503.541 278.742 503.527C278.742 503.5 279.184 503.68 280.028 504.039C280.927 504.44 282.145 504.994 283.694 505.671C286.931 507.165 291.496 509.254 297.056 511.813H296.807C300.778 509.572 304.803 505.796 307.265 500.567C307.874 499.267 308.399 497.897 308.801 496.459C308.994 495.739 309.174 495.02 309.243 494.259C309.368 493.512 309.437 492.752 309.492 491.977C309.589 490.442 309.617 488.865 309.326 487.329C309.05 485.849 308.413 484.189 307.099 483.567L306.975 483.525L306.892 483.497C303.503 481.865 300.197 480.274 297.001 478.739C295.41 477.964 293.833 477.217 292.298 476.47C291.509 476.111 290.804 475.682 290.043 475.585C289.282 475.461 288.494 475.557 287.802 475.848C287.083 476.138 286.544 476.595 286.018 477.203C285.478 477.784 284.967 478.365 284.482 478.946C283.5 480.122 282.615 481.312 281.813 482.515C280.208 484.908 278.963 487.288 277.995 489.542C277.524 490.663 277.096 491.756 276.75 492.793C276.446 493.844 276.21 494.854 276.072 495.809C275.754 497.718 275.712 499.405 276.031 500.719C276.307 502.061 277.068 502.877 277.704 503.195C278.341 503.5 278.742 503.472 278.742 503.5L278.756 503.527Z" fill="#299D3B"/>
<g opacity="0.15">
<path d="M296.061 509.061C295.715 509.973 291.869 509.462 287.581 507.497C283.293 505.533 280.416 502.697 281.024 501.84C281.633 500.996 285.022 502.31 289.103 504.178C293.197 506.045 296.406 508.065 296.047 509.061H296.061Z" fill="white"/>
</g>
<g opacity="0.15">
<path d="M288.19 478.213C288.522 478.559 288.217 479.984 287.138 482.017C286.073 484.051 284.206 486.734 282.435 489.611C281.564 491.064 280.803 492.447 280.194 493.72C279.641 494.854 279.212 496.044 278.88 497.247C278.368 499.253 278.368 500.705 277.732 500.954C277.096 501.19 276.404 499.626 276.183 497.081C276.155 495.587 276.39 494.093 276.874 492.669C277.441 490.981 278.202 489.376 279.129 487.855C280.761 485.254 282.684 482.833 284.856 480.648C286.557 478.808 287.692 477.867 288.176 478.213H288.19Z" fill="white"/>
</g>
<path d="M290.016 477.245C290.016 477.245 290.126 477.632 290.209 478.352C290.292 479.071 290.32 480.122 290.278 481.409C290.195 483.995 289.628 487.578 288.176 491.285C286.71 494.979 284.676 497.994 282.975 499.945C282.131 500.927 281.384 501.674 280.831 502.13C280.291 502.601 279.973 502.85 279.931 502.808C279.848 502.711 280.997 501.618 282.573 499.613C284.15 497.607 286.073 494.633 287.498 491.022C288.909 487.398 289.545 483.912 289.753 481.381C289.974 478.836 289.877 477.245 290.002 477.245H290.016Z" fill="#299D3B"/>
<path d="M317.252 475.004C317.252 475.004 317.474 475.336 317.764 476C318.055 476.664 318.414 477.646 318.774 478.877C319.507 481.353 320.116 484.908 320.061 488.851C320.005 492.807 319.314 496.334 318.608 498.81C318.248 500.055 317.916 501.037 317.64 501.701C317.363 502.365 317.197 502.725 317.156 502.711C317.045 502.67 317.543 501.162 318.124 498.686C318.705 496.21 319.286 492.724 319.355 488.851C319.41 484.978 318.885 481.478 318.29 479.016C317.709 476.539 317.142 475.059 317.266 475.004H317.252Z" fill="#299D3B"/>
<path d="M336.107 394.317C317.003 396.295 281.149 421.817 311.443 458.252C341.737 494.702 382.737 465.003 386.901 439.91C390.179 420.143 371.671 390.637 336.107 394.317Z" fill="#FF725E"/>
<path d="M336.107 390.07C317.003 392.048 281.149 417.57 311.443 454.006C341.737 490.455 382.737 460.756 386.901 435.663C390.179 415.896 371.671 386.391 336.107 390.07Z" fill="#FF725E"/>
<path d="M318.705 408.745C316.021 411.124 323.948 419.659 325.192 417.556C326.424 415.454 320.877 406.836 318.705 408.745Z" fill="#FF725E"/>
<path d="M327.226 402.866C325.69 403.378 329.495 419.424 333.202 417.888C336.909 416.353 329.896 401.967 327.226 402.866Z" fill="#FF725E"/>
<path d="M337.531 400.168C335.996 400.763 337.836 410.764 340.92 410.418C344.005 410.073 339.067 399.573 337.531 400.168Z" fill="#FF725E"/>
<path d="M348.708 398.965C345.015 398.965 345.582 412.867 348.708 413.185C351.835 413.503 353.799 398.979 348.708 398.965Z" fill="#FF725E"/>
<path d="M327.752 431.624C327.198 429.895 312.632 431.693 313.863 435.29C315.095 438.886 328.927 435.359 327.752 431.624Z" fill="#FF725E"/>
<path d="M339.122 444.143C340.879 444.461 340.478 458.474 336.383 456.717C332.289 454.946 337.365 443.825 339.122 444.143Z" fill="#FF725E"/>
<path d="M334.267 437.794C335.982 439.08 326.659 453.176 321.762 450.174C316.851 447.172 332.552 436.507 334.267 437.794Z" fill="#FF725E"/>
<path d="M359.664 428.65C360.176 425.358 376.014 428.761 374.935 431.942C373.857 435.124 358.986 433.007 359.664 428.65Z" fill="#FF725E"/>
<path d="M362.361 423.103C363.288 425.123 373.414 422.923 372.238 420.157C371.062 417.39 361.435 421.084 362.361 423.103Z" fill="#FF725E"/>
<path d="M355.901 434.031C355.196 435.096 366.428 444.032 367.272 441.418C368.116 438.817 357.672 431.348 355.901 434.031Z" fill="#FF725E"/>
<path d="M351.835 437.918C349.345 439.412 352.789 451.336 355.652 450.52C358.516 449.718 355.39 435.788 351.835 437.918Z" fill="#FF725E"/>
<path d="M333.465 392.104C333.492 392.214 331.639 392.56 328.831 393.584C327.42 394.082 325.787 394.815 324.044 395.728C322.315 396.669 320.476 397.817 318.677 399.2C316.893 400.597 315.33 402.091 314.002 403.53C312.701 404.982 311.609 406.379 310.793 407.597C309.146 410.045 308.386 411.719 308.289 411.663C308.247 411.65 308.427 411.221 308.759 410.474C308.925 410.086 309.146 409.63 309.437 409.118C309.727 408.606 310.032 407.998 310.447 407.389C311.221 406.116 312.286 404.692 313.587 403.198C314.915 401.718 316.492 400.196 318.29 398.771C320.116 397.374 321.997 396.212 323.768 395.285C325.552 394.386 327.226 393.681 328.678 393.224C329.384 392.961 330.062 392.809 330.643 392.643C331.224 392.477 331.735 392.367 332.15 392.297C332.98 392.145 333.451 392.076 333.451 392.104H333.465Z" fill="white"/>
<path d="M352.637 393.39C352.582 393.542 350.7 392.989 348.307 392.671C345.914 392.339 343.95 392.38 343.936 392.228C343.922 392.09 345.928 391.786 348.39 392.131C350.852 392.45 352.706 393.266 352.651 393.404L352.637 393.39Z" fill="white"/>
<path d="M355.016 417.28C355.099 417.404 352.54 419.022 349.013 420.281C345.499 421.554 342.47 421.941 342.442 421.803C342.414 421.637 345.347 421.014 348.805 419.756C352.277 418.511 354.919 417.127 355.002 417.28H355.016Z" fill="white"/>
</svg>
